<svg width="554" height="554" viewBox="0 0 554 554" fill="none" xmlns="http://www.w3.org/2000/svg">
<rect width="554" height="554" fill="#FFF6F0"/>
<path d="M554 423.699H0V423.976H554V423.699Z" fill="#F5EBE4"/>
<path d="M498.489 441.527H437.294V441.804H498.489V441.527Z" fill="#F5EBE4"/>
<path d="M366.194 435.721H356.565V435.998H366.194V435.721Z" fill="#F5EBE4"/>
<path d="M433.959 431.245H412.697V431.522H433.959V431.245Z" fill="#F5EBE4"/>
<path d="M105.98 433.106H58.1257V433.383H105.98V433.106Z" fill="#F5EBE4"/>
<path d="M289.243 440.264H238.586V440.541H289.243V440.264Z" fill="#F5EBE4"/>
<path d="M259.427 435.577H155.63V435.854H259.427V435.577Z" fill="#F5EBE4"/>
<path d="M268.934 367.956C268.934 368.787 268.77 369.611 268.451 370.379C268.132 371.148 267.665 371.846 267.077 372.433C266.488 373.021 265.789 373.487 265.021 373.804C264.252 374.121 263.428 374.284 262.596 374.282H48.6523C46.9763 374.279 45.3699 373.612 44.1858 372.425C43.0017 371.239 42.3367 369.632 42.3367 367.956V67.2112C42.3513 65.5448 43.0227 63.9515 44.2052 62.7772C45.3878 61.603 46.9858 60.9428 48.6523 60.9399H262.596C264.274 60.9399 265.883 61.6065 267.07 62.793C268.256 63.9795 268.923 65.5887 268.923 67.2666M268.646 67.2666C268.652 66.4679 268.499 65.6759 268.198 64.9362C267.897 64.1965 267.452 63.5236 266.89 62.9563C266.328 62.3889 265.659 61.9383 264.922 61.6303C264.185 61.3223 263.395 61.163 262.596 61.1615H48.6523C47.0497 61.1645 45.5138 61.8031 44.3817 62.9374C43.2495 64.0716 42.6137 65.6087 42.6137 67.2112V367.956C42.6137 369.558 43.2495 371.095 44.3817 372.23C45.5138 373.364 47.0497 374.002 48.6523 374.005H262.596C264.2 374.002 265.737 373.364 266.871 372.23C268.004 371.096 268.643 369.559 268.646 367.956" fill="#F5EBE4"/>
<path d="M502.268 374.282H288.313C286.636 374.279 285.028 373.612 283.842 372.426C282.657 371.24 281.989 369.633 281.986 367.956V67.2112C282.004 65.5438 282.678 63.9505 283.862 62.7766C285.046 61.6026 286.645 60.9428 288.313 60.9399H502.268C503.932 60.9457 505.527 61.6072 506.707 62.7811C507.888 63.955 508.558 65.5467 508.572 67.2112V367.956C508.572 369.63 507.909 371.236 506.727 372.421C505.545 373.607 503.942 374.276 502.268 374.282ZM288.313 61.1615C286.709 61.1645 285.172 61.8028 284.038 62.9367C282.904 64.0706 282.266 65.6076 282.263 67.2112V367.956C282.266 369.559 282.904 371.096 284.038 372.23C285.172 373.364 286.709 374.002 288.313 374.005H502.268C503.871 374.002 505.408 373.364 506.542 372.23C507.676 371.096 508.314 369.559 508.317 367.956V67.2112C508.314 65.6076 507.676 64.0706 506.542 62.9367C505.408 61.8028 503.871 61.1645 502.268 61.1615H288.313Z" fill="#F5EBE4"/>
<path d="M305.664 120.584H106.002C102.698 120.584 100.019 123.262 100.019 126.567V219.75C100.019 223.054 102.698 225.733 106.002 225.733H305.664C308.968 225.733 311.647 223.054 311.647 219.75V126.567C311.647 123.262 308.968 120.584 305.664 120.584Z" fill="#F5EBE4"/>
<path d="M296.855 111.775H97.1938C93.8893 111.775 91.2106 114.454 91.2106 117.758V210.941C91.2106 214.245 93.8893 216.924 97.1938 216.924H296.855C300.16 216.924 302.839 214.245 302.839 210.941V117.758C302.839 114.454 300.16 111.775 296.855 111.775Z" fill="#EADDD3"/>
<path d="M287.814 102.734H88.1525C84.8481 102.734 82.1693 105.413 82.1693 108.717V201.9C82.1693 205.204 84.8481 207.883 88.1525 207.883H287.814C291.119 207.883 293.797 205.204 293.797 201.9V108.717C293.797 105.413 291.119 102.734 287.814 102.734Z" fill="#F5EBE4"/>
<path d="M275.327 114.556H100.64C97.3597 114.556 94.7008 117.215 94.7008 120.495V141.591C94.7008 144.871 97.3597 147.53 100.64 147.53H275.327C278.607 147.53 281.266 144.871 281.266 141.591V120.495C281.266 117.215 278.607 114.556 275.327 114.556Z" fill="white"/>
<path d="M240.713 161.292H135.254C132.873 161.292 130.943 163.221 130.943 165.602V185.446C130.943 187.826 132.873 189.756 135.254 189.756H240.713C243.093 189.756 245.023 187.826 245.023 185.446V165.602C245.023 163.221 243.093 161.292 240.713 161.292Z" fill="#EADDD3"/>
<path d="M187.983 141.104C187.489 141.101 187.015 140.902 186.666 140.551C186.318 140.201 186.122 139.726 186.122 139.231V122.844C186.158 122.374 186.371 121.934 186.717 121.614C187.063 121.293 187.517 121.115 187.989 121.115C188.461 121.115 188.915 121.293 189.261 121.614C189.607 121.934 189.82 122.374 189.856 122.844V139.231C189.856 139.728 189.659 140.204 189.307 140.555C188.956 140.906 188.48 141.104 187.983 141.104Z" fill="#EADDD3"/>
<path d="M196.171 132.96H179.795C179.538 132.98 179.279 132.946 179.036 132.861C178.792 132.777 178.568 132.642 178.379 132.467C178.19 132.292 178.039 132.079 177.935 131.843C177.832 131.606 177.779 131.351 177.779 131.093C177.779 130.835 177.832 130.58 177.935 130.343C178.039 130.107 178.19 129.894 178.379 129.719C178.568 129.544 178.792 129.409 179.036 129.325C179.279 129.24 179.538 129.206 179.795 129.226H196.171C196.429 129.206 196.687 129.24 196.931 129.325C197.175 129.409 197.398 129.544 197.587 129.719C197.777 129.894 197.928 130.107 198.031 130.343C198.134 130.58 198.188 130.835 198.188 131.093C198.188 131.351 198.134 131.606 198.031 131.843C197.928 132.079 197.777 132.292 197.587 132.467C197.398 132.642 197.175 132.777 196.931 132.861C196.687 132.946 196.429 132.98 196.171 132.96Z" fill="#EADDD3"/>
<path d="M193.778 138.699C193.533 138.701 193.291 138.653 193.064 138.56C192.838 138.467 192.632 138.33 192.46 138.156L180.87 126.567C180.697 126.394 180.559 126.188 180.466 125.962C180.372 125.736 180.324 125.493 180.324 125.248C180.324 125.003 180.372 124.761 180.466 124.535C180.559 124.308 180.697 124.103 180.87 123.93C181.043 123.757 181.249 123.619 181.475 123.525C181.701 123.432 181.944 123.384 182.188 123.384C182.433 123.384 182.676 123.432 182.902 123.525C183.128 123.619 183.334 123.757 183.507 123.93L195.097 135.508C195.448 135.859 195.645 136.336 195.645 136.832C195.645 137.329 195.448 137.805 195.097 138.156C194.924 138.33 194.718 138.467 194.492 138.56C194.265 138.653 194.023 138.701 193.778 138.699Z" fill="#EADDD3"/>
<path d="M182.188 138.699C181.944 138.701 181.701 138.653 181.475 138.56C181.248 138.467 181.043 138.33 180.87 138.156C180.519 137.805 180.322 137.329 180.322 136.832C180.322 136.336 180.519 135.859 180.87 135.508L192.46 123.93C192.809 123.58 193.284 123.384 193.778 123.384C194.273 123.384 194.747 123.58 195.097 123.93C195.446 124.279 195.643 124.754 195.643 125.248C195.643 125.743 195.446 126.217 195.097 126.567L183.507 138.156C183.334 138.33 183.128 138.467 182.902 138.56C182.676 138.653 182.433 138.701 182.188 138.699Z" fill="#EADDD3"/>
<path d="M234.652 141.104C234.156 141.104 233.679 140.906 233.328 140.555C232.977 140.204 232.78 139.728 232.78 139.231V122.844C232.816 122.374 233.028 121.934 233.374 121.614C233.721 121.293 234.175 121.115 234.647 121.115C235.118 121.115 235.573 121.293 235.919 121.614C236.265 121.934 236.477 122.374 236.514 122.844V139.231C236.514 139.726 236.318 140.201 235.969 140.551C235.62 140.902 235.147 141.101 234.652 141.104Z" fill="#EADDD3"/>
<path d="M242.84 132.96H226.453C225.983 132.924 225.543 132.711 225.223 132.365C224.903 132.019 224.724 131.565 224.724 131.093C224.724 130.621 224.903 130.167 225.223 129.821C225.543 129.475 225.983 129.262 226.453 129.226H242.84C243.311 129.262 243.75 129.475 244.07 129.821C244.391 130.167 244.569 130.621 244.569 131.093C244.569 131.565 244.391 132.019 244.07 132.365C243.75 132.711 243.311 132.924 242.84 132.96Z" fill="#EADDD3"/>
<path d="M240.436 138.699C240.191 138.701 239.949 138.653 239.722 138.56C239.496 138.467 239.29 138.33 239.117 138.156L227.539 126.567C227.366 126.394 227.228 126.188 227.135 125.962C227.041 125.736 226.993 125.493 226.993 125.248C226.993 125.003 227.041 124.761 227.135 124.535C227.228 124.308 227.366 124.103 227.539 123.93C227.712 123.757 227.918 123.619 228.144 123.525C228.37 123.432 228.612 123.384 228.857 123.384C229.102 123.384 229.345 123.432 229.571 123.525C229.797 123.619 230.003 123.757 230.176 123.93L241.766 135.508C242.111 135.862 242.305 136.337 242.305 136.832C242.305 137.327 242.111 137.802 241.766 138.156C241.591 138.33 241.383 138.468 241.155 138.561C240.927 138.654 240.682 138.701 240.436 138.699Z" fill="#EADDD3"/>
<path d="M228.857 138.699C228.613 138.701 228.37 138.653 228.144 138.56C227.917 138.467 227.712 138.33 227.539 138.156C227.188 137.805 226.99 137.329 226.99 136.832C226.99 136.336 227.188 135.859 227.539 135.508L239.118 123.93C239.286 123.737 239.492 123.581 239.724 123.471C239.955 123.361 240.207 123.3 240.463 123.291C240.719 123.282 240.974 123.326 241.212 123.42C241.45 123.513 241.667 123.655 241.848 123.835C242.03 124.016 242.172 124.232 242.267 124.47C242.362 124.708 242.407 124.963 242.399 125.219C242.391 125.475 242.331 125.727 242.222 125.959C242.113 126.19 241.958 126.397 241.766 126.567L230.176 138.156C230.003 138.33 229.797 138.467 229.571 138.56C229.345 138.653 229.102 138.701 228.857 138.699Z" fill="#EADDD3"/>
<path d="M141.325 141.104C140.829 141.104 140.352 140.906 140.001 140.555C139.65 140.204 139.453 139.728 139.453 139.231V122.844C139.489 122.374 139.702 121.934 140.048 121.614C140.394 121.293 140.848 121.115 141.32 121.115C141.792 121.115 142.246 121.293 142.592 121.614C142.938 121.934 143.151 122.374 143.187 122.844V139.231C143.187 139.726 142.991 140.201 142.642 140.551C142.294 140.902 141.82 141.101 141.325 141.104Z" fill="#EADDD3"/>
<path d="M149.513 132.96H133.126C132.656 132.924 132.217 132.711 131.896 132.365C131.576 132.019 131.398 131.565 131.398 131.093C131.398 130.621 131.576 130.167 131.896 129.821C132.217 129.475 132.656 129.262 133.126 129.226H149.513C149.984 129.262 150.423 129.475 150.744 129.821C151.064 130.167 151.242 130.621 151.242 131.093C151.242 131.565 151.064 132.019 150.744 132.365C150.423 132.711 149.984 132.924 149.513 132.96Z" fill="#EADDD3"/>
<path d="M147.109 138.699C146.864 138.701 146.622 138.653 146.396 138.56C146.169 138.467 145.964 138.33 145.791 138.156L134.212 126.567C134.039 126.394 133.902 126.188 133.808 125.962C133.714 125.736 133.666 125.493 133.666 125.248C133.666 125.003 133.714 124.761 133.808 124.535C133.902 124.308 134.039 124.103 134.212 123.93C134.385 123.757 134.591 123.619 134.817 123.525C135.043 123.432 135.286 123.384 135.531 123.384C135.775 123.384 136.018 123.432 136.244 123.525C136.47 123.619 136.676 123.757 136.849 123.93L148.472 135.508C148.818 135.862 149.011 136.337 149.011 136.832C149.011 137.327 148.818 137.802 148.472 138.156C148.293 138.335 148.081 138.474 147.846 138.568C147.612 138.661 147.361 138.706 147.109 138.699Z" fill="#EADDD3"/>
<path d="M135.531 138.699C135.286 138.701 135.043 138.654 134.817 138.561C134.59 138.468 134.385 138.33 134.212 138.156C133.861 137.805 133.664 137.329 133.664 136.832C133.664 136.336 133.861 135.859 134.212 135.508L145.791 123.93C145.959 123.737 146.166 123.581 146.397 123.471C146.628 123.361 146.88 123.3 147.136 123.291C147.392 123.282 147.647 123.326 147.885 123.42C148.123 123.513 148.34 123.655 148.522 123.835C148.703 124.016 148.845 124.232 148.94 124.47C149.035 124.708 149.08 124.963 149.072 125.219C149.064 125.475 149.004 125.727 148.895 125.959C148.786 126.19 148.631 126.397 148.439 126.567L136.849 138.156C136.676 138.33 136.471 138.467 136.244 138.56C136.018 138.653 135.775 138.701 135.531 138.699Z" fill="#EADDD3"/>
<path d="M76.1639 337.94L61.4939 291.404C61.364 290.97 61.3239 290.515 61.3763 290.065C61.4287 289.615 61.5724 289.181 61.7985 288.789C62.0247 288.397 62.3286 288.055 62.6916 287.784C63.0545 287.514 63.469 287.32 63.9094 287.216L65.7819 286.806C71.5255 285.445 77.0235 283.202 82.0806 280.158C87.1587 276.993 91.521 272.804 94.8891 267.859C95.3651 267.163 96.0876 266.674 96.9105 266.491C97.7333 266.308 98.595 266.445 99.3211 266.873C104.491 269.891 110.228 271.81 116.174 272.512C122.048 273.113 127.98 272.799 133.758 271.582L135.641 271.161C136.083 271.06 136.541 271.052 136.986 271.138C137.432 271.224 137.854 271.402 138.226 271.661C138.598 271.92 138.913 272.253 139.149 272.64C139.385 273.027 139.537 273.459 139.597 273.909L146.245 322.284C146.315 322.782 146.268 323.289 146.109 323.766C145.949 324.243 145.681 324.676 145.325 325.032L118.035 352.499C117.593 352.937 117.036 353.242 116.429 353.379C115.822 353.516 115.188 353.48 114.6 353.275L78.1693 340.078C77.6938 339.899 77.2658 339.613 76.9181 339.242C76.5704 338.871 76.3124 338.426 76.1639 337.94Z" fill="#F5EBE4"/>
<path d="M106.867 296.7L106.368 309.553L113.127 333.442L103.554 309.398L102.335 298.052L95.9639 291.149L97.7256 268.38C97.7438 268.13 97.8255 267.889 97.9628 267.679C98.1001 267.47 98.2885 267.299 98.5103 267.182C98.7321 267.066 98.9799 267.008 99.2304 267.014C99.4808 267.02 99.7256 267.089 99.9416 267.216C101.497 268.097 103.107 268.878 104.761 269.554C104.999 269.657 105.194 269.839 105.311 270.07C105.428 270.3 105.461 270.565 105.404 270.817L101.039 288.191L106.867 296.7Z" fill="#EADDD3"/>
<path d="M398.514 111.986L337.043 131.93C335.827 132.325 334.819 133.187 334.237 134.325C333.656 135.463 333.549 136.785 333.94 138.001L347.646 180.283C348.042 181.498 348.903 182.506 350.041 183.088C351.179 183.669 352.501 183.776 353.718 183.385L415.19 163.441C416.405 163.045 417.414 162.184 417.995 161.046C418.576 159.908 418.683 158.586 418.292 157.369L404.586 115.088C404.19 113.873 403.329 112.864 402.191 112.283C401.053 111.701 399.731 111.594 398.514 111.986Z" fill="#F5EBE4"/>
<path d="M379.446 145.957L386.271 161.181L375.822 164.571L372.41 148.239C370.603 147.952 368.946 147.065 367.705 145.721C366.465 144.377 365.712 142.655 365.57 140.831C365.427 139.008 365.903 137.189 366.92 135.669C367.937 134.148 369.436 133.015 371.176 132.45C372.916 131.886 374.795 131.923 376.511 132.557C378.227 133.191 379.679 134.384 380.634 135.944C381.589 137.504 381.991 139.34 381.776 141.156C381.56 142.973 380.739 144.664 379.446 145.957Z" fill="#EADDD3"/>
<path d="M325.021 80.2191C315.525 93.5816 318.827 112.218 331.536 122.578L334.561 125.049C335.442 125.766 336.572 126.103 337.703 125.987C338.833 125.871 339.871 125.31 340.588 124.428C341.305 123.547 341.643 122.416 341.526 121.286C341.41 120.156 340.849 119.118 339.968 118.401L336.101 115.232C333.646 113.225 331.648 110.716 330.239 107.875C328.831 105.034 328.045 101.925 327.934 98.7559C327.823 95.5868 328.389 92.4304 329.595 89.4975C330.8 86.5646 332.618 83.9227 334.926 81.7482C343.137 73.9922 356.089 74.0697 364.842 81.2163L369.651 74.103C366.373 71.4396 362.584 69.4776 358.517 68.3385C354.451 67.1994 350.193 66.9076 346.009 67.481C341.825 68.0543 337.803 69.4808 334.193 71.6719C330.583 73.8631 327.461 76.7722 325.021 80.2191Z" fill="#F5EBE4"/>
<path d="M417.439 366.172C413.886 366.178 410.366 365.482 407.083 364.124C403.799 362.767 400.816 360.774 398.304 358.261C393.863 353.832 391.095 348 390.473 341.759C389.851 335.518 391.412 329.255 394.891 324.036C398.37 318.818 403.551 314.968 409.552 313.142C415.552 311.316 422 311.628 427.796 314.024C433.592 316.421 438.377 320.753 441.336 326.283C444.295 331.813 445.245 338.198 444.023 344.349C442.802 350.501 439.484 356.039 434.636 360.018C429.789 363.997 423.711 366.172 417.439 366.172ZM405.694 350.87C408.018 353.197 410.979 354.782 414.204 355.425C417.428 356.068 420.771 355.74 423.809 354.482C426.847 353.225 429.444 351.095 431.271 348.361C433.098 345.628 434.074 342.413 434.074 339.125C434.074 335.837 433.098 332.623 431.271 329.89C429.444 327.156 426.847 325.026 423.809 323.769C420.771 322.511 417.428 322.183 414.204 322.826C410.979 323.469 408.018 325.054 405.694 327.381C402.582 330.497 400.834 334.721 400.834 339.125C400.834 343.53 402.582 347.754 405.694 350.87Z" fill="#F5EBE4"/>
<path d="M471.31 398.226C470.615 398.228 469.926 398.091 469.285 397.823C468.644 397.554 468.063 397.16 467.576 396.664L429.139 358.227C428.222 357.235 427.724 355.926 427.75 354.574C427.777 353.223 428.325 351.934 429.281 350.979C430.237 350.023 431.526 349.474 432.877 349.448C434.228 349.421 435.538 349.919 436.53 350.837L474.966 389.273C475.695 390.005 476.191 390.937 476.391 391.95C476.591 392.963 476.486 394.013 476.091 394.967C475.695 395.921 475.025 396.737 474.167 397.311C473.308 397.885 472.299 398.192 471.266 398.193L471.31 398.226Z" fill="#F5EBE4"/>
<path d="M451.277 405.461C450.244 405.457 449.236 405.148 448.378 404.573C447.521 403.997 446.852 403.181 446.457 402.227C446.061 401.273 445.957 400.223 446.156 399.21C446.355 398.196 446.849 397.264 447.577 396.531L461.216 382.903C461.694 382.386 462.271 381.971 462.914 381.682C463.556 381.394 464.25 381.238 464.953 381.225C465.657 381.211 466.357 381.339 467.01 381.602C467.663 381.865 468.256 382.258 468.754 382.755C469.251 383.253 469.644 383.846 469.907 384.499C470.17 385.152 470.298 385.852 470.284 386.555C470.271 387.259 470.115 387.953 469.827 388.595C469.538 389.238 469.123 389.815 468.606 390.293L454.967 403.921C454.485 404.41 453.91 404.798 453.277 405.062C452.643 405.327 451.964 405.462 451.277 405.461Z" fill="#F5EBE4"/>
<path d="M444.906 390.47C443.874 390.467 442.867 390.158 442.01 389.584C441.153 389.009 440.485 388.193 440.09 387.24C439.696 386.286 439.592 385.237 439.793 384.225C439.993 383.212 440.489 382.282 441.217 381.551L450.535 372.221C451.013 371.705 451.59 371.29 452.233 371.001C452.875 370.713 453.569 370.557 454.272 370.543C454.976 370.53 455.676 370.658 456.329 370.921C456.982 371.184 457.575 371.576 458.072 372.074C458.57 372.572 458.962 373.165 459.225 373.818C459.488 374.471 459.617 375.171 459.603 375.874C459.59 376.578 459.434 377.272 459.145 377.914C458.857 378.556 458.442 379.134 457.925 379.612L448.607 388.908C448.124 389.4 447.548 389.791 446.913 390.059C446.278 390.328 445.596 390.467 444.906 390.47Z" fill="#F5EBE4"/>
<path d="M277 473.736C395.647 473.736 491.83 468.121 491.83 461.194C491.83 454.267 395.647 448.651 277 448.651C158.353 448.651 62.1699 454.267 62.1699 461.194C62.1699 468.121 158.353 473.736 277 473.736Z" fill="#F5EBE4"/>
<path d="M358.416 287.448C354.405 293.177 343.037 306.849 333.043 310.539C317.287 341.796 339.048 386.504 360.1 401.096C360.1 401.096 418.935 370.559 428.309 295.836L358.416 287.448Z" fill="#263238"/>
<path d="M433.461 106.822C421.516 104.606 393.828 103.421 391.756 135.63C389.684 167.84 379.235 189.047 405.772 194.709L407.633 185.956L433.461 106.822Z" fill="#263238"/>
<path opacity="0.2" d="M433.461 106.822C421.516 104.606 393.828 103.421 391.756 135.63C389.684 167.84 379.235 189.047 405.772 194.709L407.633 185.956L433.461 106.822Z" fill="white"/>
<path d="M388.487 185.269C385.525 183.976 382.171 183.913 379.162 185.093C376.153 186.273 373.737 188.6 372.443 191.562L372.388 191.695L367.147 203.695C365.396 207.717 363.59 211.705 361.795 215.65C360.898 217.622 359.978 219.572 359.025 221.478C358.072 223.384 357.175 225.312 356.211 227.14C355.247 228.968 354.25 230.741 353.286 232.414C352.887 233.079 352.488 233.721 352.1 234.331L350.217 234.608C347.991 234.855 345.753 234.981 343.513 234.985C341.175 234.985 338.782 234.896 336.345 234.763C333.907 234.63 331.447 234.364 328.965 234.109C324.001 233.588 318.993 232.857 313.919 232.026C311.403 231.616 308.866 231.195 306.34 230.719L298.817 229.356H298.606C297.167 229.099 295.684 229.369 294.428 230.116C293.172 230.863 292.226 232.037 291.765 233.424C291.304 234.811 291.357 236.317 291.915 237.668C292.474 239.019 293.5 240.123 294.806 240.779C299.721 243.175 304.754 245.319 309.885 247.206C312.445 248.137 315.016 249.056 317.641 249.876C320.267 250.696 322.905 251.472 325.586 252.192C331.072 253.66 336.656 254.737 342.294 255.416C345.304 255.754 348.33 255.92 351.358 255.915C354.712 255.901 358.055 255.529 361.33 254.807C363.168 254.398 364.847 253.463 366.161 252.114L366.67 251.593C368.623 249.553 370.437 247.384 372.1 245.101C373.651 243.018 374.992 240.912 376.299 238.84C378.925 234.696 381.241 230.553 383.423 226.375C384.531 224.292 385.584 222.198 386.592 220.093C387.601 217.988 388.631 215.883 389.573 213.755C390.515 211.628 391.479 209.523 392.365 207.362C393.251 205.202 394.116 203.107 394.98 200.803C396.104 197.875 396.056 194.628 394.847 191.734C393.638 188.841 391.36 186.526 388.487 185.269Z" fill="#263238"/>
<path opacity="0.2" d="M388.487 185.269C385.525 183.976 382.171 183.913 379.162 185.093C376.153 186.273 373.737 188.6 372.443 191.562L372.388 191.695L367.147 203.695C365.396 207.717 363.59 211.705 361.795 215.65C360.898 217.622 359.978 219.572 359.025 221.478C358.072 223.384 357.175 225.312 356.211 227.14C355.247 228.968 354.25 230.741 353.286 232.414C352.887 233.079 352.488 233.721 352.1 234.331L350.217 234.608C347.991 234.855 345.753 234.981 343.513 234.985C341.175 234.985 338.782 234.896 336.345 234.763C333.907 234.63 331.447 234.364 328.965 234.109C324.001 233.588 318.993 232.857 313.919 232.026C311.403 231.616 308.866 231.195 306.34 230.719L298.817 229.356H298.606C297.167 229.099 295.684 229.369 294.428 230.116C293.172 230.863 292.226 232.037 291.765 233.424C291.304 234.811 291.357 236.317 291.915 237.668C292.474 239.019 293.5 240.123 294.806 240.779C299.721 243.175 304.754 245.319 309.885 247.206C312.445 248.137 315.016 249.056 317.641 249.876C320.267 250.696 322.905 251.472 325.586 252.192C331.072 253.66 336.656 254.737 342.294 255.416C345.304 255.754 348.33 255.92 351.358 255.915C354.712 255.901 358.055 255.529 361.33 254.807C363.168 254.398 364.847 253.463 366.161 252.114L366.67 251.593C368.623 249.553 370.437 247.384 372.1 245.101C373.651 243.018 374.992 240.912 376.299 238.84C378.925 234.696 381.241 230.553 383.423 226.375C384.531 224.292 385.584 222.198 386.592 220.093C387.601 217.988 388.631 215.883 389.573 213.755C390.515 211.628 391.479 209.523 392.365 207.362C393.251 205.202 394.116 203.107 394.98 200.803C396.104 197.875 396.056 194.628 394.847 191.734C393.638 188.841 391.36 186.526 388.487 185.269Z" fill="white"/>
<path d="M296.645 228.658L287.537 225.954L287.46 241.766C287.46 241.766 293.277 242.752 297.432 241.245C298.65 240.764 299.665 239.877 300.305 238.735C300.945 237.592 301.171 236.263 300.944 234.973L300.7 233.356C300.535 232.27 300.067 231.253 299.35 230.422C298.632 229.591 297.695 228.979 296.645 228.658Z" fill="#CE7A63"/>
<path d="M275.449 232.381L276.357 237.921C276.529 238.99 277.076 239.964 277.9 240.667C278.725 241.369 279.773 241.755 280.856 241.755H287.504L287.581 225.943L279.36 227.051C278.747 227.13 278.156 227.333 277.624 227.647C277.091 227.961 276.628 228.38 276.263 228.878C275.897 229.376 275.636 229.944 275.496 230.546C275.356 231.148 275.34 231.772 275.449 232.381Z" fill="#CE7A63"/>
<path d="M436.552 181.49C419.904 179.054 403.037 178.47 386.26 179.751C382.445 180.078 378.878 181.775 376.218 184.529C373.557 187.283 371.984 190.907 371.79 194.731C370.437 228.065 365.352 261.142 356.632 293.343C363.712 301.42 388 316.312 427.478 306.85C440.264 285.255 449.183 252.857 457.715 211.683C458.462 208.298 458.497 204.794 457.818 201.395C457.139 197.995 455.761 194.774 453.771 191.935C451.781 189.096 449.223 186.702 446.259 184.904C443.295 183.106 439.989 181.943 436.552 181.49Z" fill="#263238"/>
<path opacity="0.4" d="M436.552 181.49C419.904 179.054 403.037 178.47 386.26 179.751C382.445 180.078 378.878 181.775 376.218 184.529C373.557 187.283 371.984 190.907 371.79 194.731C370.437 228.065 365.352 261.142 356.632 293.343C363.712 301.42 388 316.312 427.478 306.85C440.264 285.255 449.183 252.857 457.715 211.683C458.462 208.298 458.497 204.794 457.818 201.395C457.139 197.995 455.761 194.774 453.771 191.935C451.781 189.096 449.223 186.702 446.259 184.904C443.295 183.106 439.989 181.943 436.552 181.49Z" fill="white"/>
<path opacity="0.4" d="M402.016 188.781C394.315 210.387 394.925 224.503 393.152 239.827C391.379 255.15 383.446 290.385 374.67 300.467" stroke="#263238" strokeWidth="0.943405" stroke-miterlimit="10"/>
<path d="M168.039 142.3C179.385 147.249 190.635 152.387 201.789 157.713C212.943 163.038 224.052 168.453 235.118 173.956C257.211 185.036 279.046 196.648 300.623 208.792C322.199 220.935 343.373 233.77 364.144 247.295C384.831 260.945 405.018 275.404 424.431 290.961C424.827 291.279 425.157 291.672 425.402 292.117C425.646 292.563 425.801 293.052 425.856 293.557C425.912 294.062 425.867 294.573 425.726 295.061C425.584 295.549 425.347 296.005 425.029 296.401C424.711 296.798 424.318 297.128 423.873 297.372C423.427 297.617 422.938 297.771 422.433 297.827C421.927 297.883 421.416 297.838 420.928 297.696C420.44 297.554 419.985 297.317 419.589 296.999H419.522C400.686 281.321 380.93 266.618 360.643 252.679C340.219 238.925 319.392 225.77 298.163 213.212C276.934 200.655 255.365 188.652 233.456 177.202C222.531 171.463 211.543 165.853 200.493 160.372C189.442 154.891 178.322 149.562 167.131 144.383C166.856 144.26 166.642 144.033 166.535 143.751C166.428 143.469 166.437 143.157 166.56 142.882C166.684 142.607 166.911 142.393 167.193 142.286C167.474 142.179 167.787 142.188 168.062 142.312L168.039 142.3Z" fill="#263238"/>
<path d="M392.564 278.008C375.073 265.015 357.123 252.657 338.716 240.935C329.541 235.025 320.29 229.267 310.96 223.661C301.631 218.054 292.239 212.514 282.784 207.041C263.874 196.197 244.742 185.752 225.389 175.707C206.044 165.668 186.543 155.918 166.765 146.766H166.931C160.333 146.132 153.692 146.091 147.087 146.644C140.479 147.153 133.922 148.183 127.475 149.724C124.263 150.498 121.099 151.463 118.002 152.616C114.915 153.723 111.978 155.212 109.26 157.048C107.935 157.961 106.768 159.084 105.803 160.372C104.851 161.59 104.353 163.103 104.396 164.649C104.537 166.205 105.135 167.685 106.113 168.903C107.101 170.178 108.244 171.324 109.515 172.316C112.127 174.313 114.938 176.036 117.902 177.457C120.839 178.931 123.974 180.127 126.921 181.778C129.959 183.33 132.695 185.412 134.999 187.928C136.148 189.255 137.012 190.806 137.536 192.482C137.995 194.193 138.041 195.99 137.669 197.723C136.781 201.03 135.228 204.121 133.104 206.808C131.121 209.534 128.938 212.06 126.833 214.62C124.687 217.129 122.696 219.767 120.872 222.52C119.034 225.225 117.861 228.327 117.448 231.572C117.205 234.761 118.17 237.925 120.152 240.436C122.151 243.002 124.562 245.218 127.287 246.995C132.661 250.707 139.364 251.97 145.89 251.815C152.482 251.56 159.012 250.442 165.314 248.491C171.645 246.559 177.86 244.265 183.928 241.622C196.116 236.447 207.972 230.342 219.96 224.525C225.932 221.516 232.073 218.856 238.353 216.559C239.953 216 241.584 215.537 243.239 215.174C244.933 214.772 246.674 214.604 248.414 214.675C249.336 214.721 250.243 214.928 251.095 215.284C251.999 215.663 252.787 216.275 253.377 217.057C254.392 218.602 254.889 220.43 254.796 222.276C254.797 222.383 254.777 222.49 254.738 222.59C254.698 222.69 254.639 222.782 254.563 222.859C254.488 222.936 254.399 222.998 254.3 223.04C254.201 223.083 254.095 223.105 253.987 223.107C253.772 223.104 253.567 223.018 253.414 222.867C253.261 222.717 253.173 222.513 253.167 222.298C253.252 220.802 252.865 219.317 252.059 218.054C251.594 217.506 251.015 217.065 250.363 216.763C249.71 216.46 249 216.304 248.281 216.304C246.69 216.242 245.099 216.395 243.55 216.758C241.957 217.114 240.385 217.558 238.841 218.088C232.62 220.356 226.535 222.979 220.614 225.943C208.648 231.727 196.792 237.832 184.482 243.007C178.34 245.646 172.051 247.929 165.646 249.843C159.218 251.826 152.558 252.963 145.835 253.222C142.444 253.314 139.056 252.972 135.752 252.203C132.423 251.426 129.264 250.044 126.434 248.125C123.583 246.254 121.06 243.926 118.966 241.234C117.933 239.833 117.128 238.277 116.584 236.624C116.063 234.949 115.875 233.187 116.03 231.439C116.497 228.021 117.761 224.761 119.719 221.921C121.57 219.127 123.594 216.451 125.78 213.91C127.908 211.34 130.079 208.825 132.018 206.154C134.062 203.622 135.57 200.7 136.45 197.567C136.783 196.034 136.749 194.443 136.351 192.925C135.877 191.415 135.096 190.019 134.057 188.825C131.847 186.413 129.22 184.42 126.301 182.942C123.442 181.335 120.34 180.139 117.337 178.621C114.299 177.163 111.421 175.392 108.75 173.335C107.398 172.277 106.184 171.052 105.138 169.69C104.029 168.291 103.358 166.595 103.21 164.815C103.155 163.004 103.731 161.23 104.839 159.796C105.889 158.414 107.153 157.209 108.584 156.228C111.385 154.337 114.411 152.803 117.592 151.663C120.731 150.495 123.939 149.521 127.198 148.749C133.703 147.202 140.32 146.176 146.987 145.68C153.652 145.128 160.353 145.179 167.009 145.835C167.064 145.825 167.12 145.825 167.175 145.835C186.953 155.042 206.443 164.837 225.777 174.92C245.112 185.003 264.236 195.495 283.127 206.387C292.59 211.831 301.978 217.371 311.293 223.007C320.607 228.643 329.859 234.453 339.048 240.436C357.389 252.255 375.324 264.661 392.853 277.654C392.877 277.673 392.898 277.696 392.914 277.723C392.929 277.75 392.939 277.78 392.944 277.811C392.948 277.842 392.946 277.873 392.938 277.903C392.93 277.933 392.916 277.961 392.897 277.986C392.878 278.011 392.854 278.032 392.827 278.047C392.8 278.063 392.771 278.073 392.74 278.077C392.709 278.081 392.678 278.079 392.647 278.071C392.617 278.063 392.589 278.049 392.564 278.03V278.008Z" fill="#263238"/>
<path d="M184.316 152.151L183.097 154.367C182.913 154.691 182.609 154.93 182.25 155.031C181.891 155.133 181.507 155.089 181.18 154.909C180.856 154.725 180.617 154.421 180.515 154.062C180.414 153.704 180.458 153.319 180.637 152.993L181.867 150.777C182.051 150.452 182.355 150.214 182.714 150.112C183.073 150.01 183.457 150.054 183.784 150.234C183.946 150.324 184.088 150.445 184.203 150.59C184.317 150.736 184.402 150.902 184.451 151.081C184.501 151.259 184.514 151.446 184.491 151.629C184.468 151.813 184.408 151.99 184.316 152.151Z" fill="#263238"/>
<path d="M248.824 185.246L247.594 187.462C247.504 187.624 247.383 187.767 247.237 187.881C247.092 187.996 246.925 188.08 246.747 188.13C246.568 188.179 246.382 188.193 246.198 188.169C246.014 188.146 245.837 188.087 245.677 187.994C245.515 187.904 245.373 187.783 245.258 187.638C245.144 187.492 245.059 187.326 245.01 187.147C244.96 186.969 244.947 186.782 244.97 186.599C244.993 186.415 245.053 186.238 245.145 186.077L246.364 183.861C246.454 183.7 246.575 183.557 246.72 183.443C246.866 183.328 247.033 183.244 247.211 183.194C247.389 183.145 247.576 183.131 247.759 183.154C247.943 183.178 248.12 183.237 248.281 183.33C248.605 183.514 248.844 183.818 248.945 184.177C249.047 184.535 249.003 184.92 248.824 185.246Z" fill="#263238"/>
<path d="M316.035 222.896L314.805 225.112C314.621 225.437 314.317 225.675 313.958 225.777C313.599 225.879 313.215 225.835 312.888 225.655C312.564 225.471 312.325 225.167 312.223 224.808C312.122 224.449 312.166 224.065 312.345 223.738L313.575 221.522C313.759 221.198 314.063 220.959 314.422 220.858C314.781 220.756 315.165 220.8 315.492 220.979C315.816 221.163 316.055 221.468 316.157 221.826C316.258 222.185 316.215 222.57 316.035 222.896Z" fill="#263238"/>
<path d="M380.432 265.565L379.202 267.781C379.018 268.106 378.714 268.345 378.355 268.446C377.996 268.548 377.612 268.504 377.285 268.324C376.961 268.14 376.722 267.836 376.62 267.477C376.519 267.119 376.563 266.734 376.742 266.408L377.972 264.192C378.156 263.867 378.46 263.628 378.819 263.527C379.178 263.425 379.562 263.469 379.889 263.649C380.213 263.833 380.452 264.137 380.554 264.496C380.655 264.854 380.612 265.239 380.432 265.565Z" fill="#263238"/>
<path d="M414.259 277.853L404.941 294.473C404.823 294.686 404.662 294.872 404.468 295.019C404.274 295.166 404.051 295.27 403.814 295.326C403.577 295.381 403.331 295.386 403.091 295.34C402.852 295.295 402.626 295.199 402.426 295.06L378.537 278.44C378.18 278.195 377.928 277.823 377.832 277.401C377.735 276.978 377.801 276.534 378.016 276.158L387.335 259.538C387.452 259.325 387.614 259.139 387.808 258.992C388.002 258.845 388.225 258.741 388.462 258.685C388.699 258.63 388.945 258.625 389.184 258.671C389.423 258.716 389.65 258.812 389.85 258.951L413.738 275.571C414.096 275.816 414.348 276.187 414.444 276.61C414.54 277.033 414.474 277.477 414.259 277.853Z" fill="#263238"/>
<path d="M392.232 295.681C390.252 295.682 388.32 295.079 386.692 293.952L385.041 292.844C383.061 291.479 381.665 289.422 381.125 287.078C380.586 284.734 380.943 282.273 382.127 280.18L384.133 276.612C384.328 276.261 384.595 275.955 384.915 275.713C385.236 275.47 385.603 275.297 385.994 275.205C386.385 275.119 386.789 275.114 387.181 275.19C387.574 275.266 387.947 275.422 388.276 275.648L401.14 284.59C401.728 284.997 402.142 285.609 402.302 286.306C402.462 287.003 402.356 287.734 402.005 288.357L400.642 290.784C399.982 291.959 399.085 292.983 398.007 293.792C396.929 294.601 395.694 295.176 394.382 295.481C393.675 295.629 392.954 295.696 392.232 295.681ZM386.98 279.415L385.584 282.03C384.87 283.284 384.654 284.761 384.979 286.167C385.303 287.573 386.144 288.805 387.335 289.62L388.974 290.728C389.639 291.193 390.394 291.513 391.19 291.665C391.986 291.818 392.806 291.801 393.595 291.615C394.384 291.44 395.126 291.098 395.772 290.613C396.418 290.127 396.953 289.509 397.34 288.8L398.26 287.16L386.98 279.415Z" fill="#263238"/>
<path d="M412.963 272.069L410.581 276.324C410.529 276.418 410.457 276.5 410.372 276.564C410.286 276.629 410.188 276.674 410.083 276.698C409.979 276.722 409.87 276.724 409.765 276.704C409.66 276.683 409.56 276.641 409.473 276.579L393.573 265.499C393.385 265.363 393.253 265.163 393.202 264.936C393.151 264.71 393.184 264.473 393.296 264.269L395.678 260.014C395.73 259.921 395.801 259.839 395.887 259.774C395.972 259.71 396.071 259.664 396.175 259.64C396.28 259.616 396.388 259.614 396.493 259.635C396.598 259.655 396.698 259.698 396.786 259.76L412.686 270.84C412.874 270.976 413.006 271.176 413.057 271.402C413.108 271.629 413.074 271.866 412.963 272.069Z" fill="#263238"/>
<path d="M427.821 148.926L407.655 163.042C409.262 170.189 409.317 177.668 399.434 179.873C400.254 183.197 402.88 185.313 407.633 185.922C413.871 187.141 418.625 187.695 423.821 184.039C425.86 182.609 428.32 181.28 427.223 178.898C423.489 170.798 425.771 156.959 427.821 148.926Z" fill="#CE7A63"/>
<path opacity="0.2" d="M419.6 154.688L407.667 163.031C408.091 164.775 408.347 166.556 408.431 168.35C412.752 169.214 419.223 165.125 419.855 160.926C420.125 158.847 420.038 156.738 419.6 154.688Z" fill="black"/>
<path d="M434.125 136.661C431.123 149.225 429.993 156.738 422.436 162.067C411.068 170.1 396.409 161.391 395.6 148.151C394.869 136.229 399.91 117.692 413.229 114.911C416.18 114.297 419.238 114.443 422.117 115.335C424.997 116.226 427.603 117.834 429.691 120.008C431.779 122.181 433.282 124.849 434.057 127.762C434.833 130.675 434.856 133.736 434.125 136.661Z" fill="#CE7A63"/>
<path d="M398.138 146.189C398.138 146.189 403.223 145.68 417.162 147.12C415.068 150.677 411.622 153.403 404.531 152.605C397.44 151.807 398.138 146.189 398.138 146.189Z" fill="white"/>
<path d="M432.242 112.706C419.589 104.95 402.669 109.027 399.711 117.448C401.506 116.342 403.624 115.881 405.716 116.141C403.168 117.404 399.711 120.495 400.985 124.517C404.054 120.916 407.268 120.816 407.268 120.816C407.268 120.816 409.617 125.248 417.173 126.234C416.815 124.917 416.523 123.582 416.298 122.235C417.434 124.451 419.069 126.373 421.075 127.849C423.08 129.326 425.401 130.317 427.854 130.744C425.638 133.159 424.962 141.924 430.414 145.359C438.17 144.86 444.585 142.267 444.153 137.503C444.708 138.673 445.193 139.876 445.604 141.104C445.604 141.104 450.524 134.544 444.696 127.065C447.488 123.52 441.549 118.423 432.242 112.706Z" fill="#263238"/>
<path d="M397.772 128.75C397.772 128.75 395.102 134.123 395.556 138.145C398.537 138.145 405.65 137.037 405.65 137.037C408.206 139.278 411.203 140.957 414.447 141.968C419.19 143.198 434.624 142.167 434.624 142.167L435.267 137.735C435.267 137.735 414.547 130.943 406.547 129.536C398.548 128.129 397.772 128.75 397.772 128.75Z" fill="#263238"/>
<path d="M437.959 150.211C436.963 151.47 435.727 152.519 434.324 153.299C432.921 154.078 431.377 154.573 429.782 154.754C425.505 155.209 424.043 151.198 425.793 147.53C427.378 144.206 431.511 140.007 435.544 141.259C439.577 142.511 440.386 147.076 437.959 150.211Z" fill="#CE7A63"/>
<path d="M414.58 135.675C414.392 136.705 413.705 137.447 413.029 137.325C412.353 137.204 411.921 136.217 412.132 135.22C412.342 134.223 413.007 133.447 413.683 133.58C414.359 133.713 414.758 134.644 414.58 135.675Z" fill="white"/>
<path d="M402.204 133.27C402.027 134.301 401.329 135.043 400.653 134.921C399.977 134.799 399.545 133.813 399.755 132.816C399.966 131.819 400.631 131.043 401.307 131.176C401.982 131.309 402.37 132.24 402.204 133.27Z" fill="white"/>
<path d="M406.747 133.27C406.747 133.27 403.345 138.81 400.254 141.203C401.783 143.253 405.029 143.043 405.029 143.043L406.747 133.27Z" fill="#BA4D3C"/>
<path d="M413.373 127.475C413.292 127.546 413.228 127.633 413.184 127.73C413.126 127.883 413.131 128.053 413.198 128.202C413.264 128.351 413.387 128.469 413.539 128.528C414.447 128.905 415.432 129.062 416.412 128.985C417.392 128.908 418.341 128.6 419.179 128.085C419.244 128.038 419.3 127.979 419.343 127.911C419.386 127.843 419.415 127.767 419.428 127.688C419.442 127.609 419.439 127.528 419.421 127.449C419.403 127.371 419.369 127.297 419.323 127.232C419.227 127.098 419.082 127.008 418.92 126.981C418.758 126.954 418.592 126.992 418.458 127.088C417.793 127.476 417.046 127.705 416.277 127.757C415.509 127.809 414.738 127.682 414.026 127.387C413.92 127.339 413.802 127.321 413.687 127.337C413.571 127.353 413.462 127.401 413.373 127.475Z" fill="#263238"/>
<path d="M402.005 126.644C401.983 126.544 401.937 126.45 401.871 126.371C401.806 126.292 401.722 126.23 401.628 126.19C400.903 125.925 400.252 125.491 399.728 124.925C399.204 124.359 398.822 123.676 398.614 122.933C398.582 122.773 398.488 122.633 398.354 122.541C398.219 122.45 398.054 122.416 397.894 122.445C397.734 122.48 397.593 122.575 397.502 122.712C397.411 122.848 397.377 123.015 397.406 123.176C397.649 124.123 398.117 124.996 398.771 125.722C399.426 126.448 400.246 127.004 401.162 127.342C401.238 127.373 401.319 127.388 401.401 127.388C401.482 127.387 401.563 127.37 401.638 127.338C401.713 127.307 401.781 127.26 401.839 127.202C401.896 127.144 401.941 127.075 401.971 126.999C402.014 126.886 402.026 126.763 402.005 126.644Z" fill="#263238"/>
<path d="M454.834 193.291C455.942 195.507 456.862 197.567 457.781 199.728C458.701 201.889 459.598 204.005 460.463 206.166C462.202 210.476 463.787 214.874 465.238 219.362C466.69 223.849 468.008 228.447 469.05 233.289C469.57 235.716 470.036 238.198 470.39 240.813C470.795 243.623 470.966 246.462 470.9 249.3C470.865 251.033 470.688 252.76 470.368 254.463C470.172 255.502 469.909 256.527 469.582 257.532L469.293 258.363L468.939 259.239C468.718 259.761 468.47 260.271 468.197 260.768L467.654 261.743C467.41 262.142 467.166 262.552 466.911 262.939C466.413 263.704 465.881 264.435 465.349 265.155C464.338 266.425 463.226 267.61 462.025 268.701C457.937 272.313 453.308 275.263 448.308 277.443C446.025 278.551 443.732 279.382 441.438 280.191C439.145 281 436.851 281.709 434.547 282.329C432.242 282.95 429.937 283.493 427.622 283.969C425.306 284.446 423.034 284.8 420.519 285.077C419.104 285.242 417.675 284.906 416.481 284.127C415.288 283.349 414.404 282.178 413.983 280.816C413.562 279.455 413.63 277.989 414.177 276.673C414.723 275.356 415.712 274.273 416.974 273.609L417.284 273.454C424.785 269.565 432.585 265.455 439.023 260.879C441.954 258.912 444.607 256.56 446.912 253.887C447.286 253.397 447.627 252.883 447.931 252.347C448.047 252.148 448.147 251.941 448.23 251.726L448.319 251.472L448.53 250.951C448.525 250.984 448.525 251.017 448.53 251.051C448.53 251.051 448.53 250.995 448.53 250.851C448.53 250.707 448.53 249.998 448.463 249.344C448.316 247.724 448.072 246.115 447.732 244.524C447.366 242.73 446.879 240.846 446.325 238.984C445.217 235.151 443.909 231.228 442.436 227.24C440.962 223.251 439.411 219.306 437.826 215.329L435.2 209.412L432.752 203.595L432.641 203.34C431.607 200.453 431.698 197.283 432.898 194.461C434.098 191.639 436.317 189.373 439.113 188.115C441.909 186.856 445.077 186.698 447.985 187.672C450.892 188.646 453.326 190.68 454.801 193.368L454.834 193.291Z" fill="#263238"/>
<path opacity="0.2" d="M454.834 193.291C455.942 195.507 456.862 197.567 457.781 199.728C458.701 201.889 459.598 204.005 460.463 206.166C462.202 210.476 463.787 214.874 465.238 219.362C466.69 223.849 468.008 228.447 469.05 233.289C469.57 235.716 470.036 238.198 470.39 240.813C470.795 243.623 470.966 246.462 470.9 249.3C470.865 251.033 470.688 252.76 470.368 254.463C470.172 255.502 469.909 256.527 469.582 257.532L469.293 258.363L468.939 259.239C468.718 259.761 468.47 260.271 468.197 260.768L467.654 261.743C467.41 262.142 467.166 262.552 466.911 262.939C466.413 263.704 465.881 264.435 465.349 265.155C464.338 266.425 463.226 267.61 462.025 268.701C457.937 272.313 453.308 275.263 448.308 277.443C446.025 278.551 443.732 279.382 441.438 280.191C439.145 281 436.851 281.709 434.547 282.329C432.242 282.95 429.937 283.493 427.622 283.969C425.306 284.446 423.034 284.8 420.519 285.077C419.104 285.242 417.675 284.906 416.481 284.127C415.288 283.349 414.404 282.178 413.983 280.816C413.562 279.455 413.63 277.989 414.177 276.673C414.723 275.356 415.712 274.273 416.974 273.609L417.284 273.454C424.785 269.565 432.585 265.455 439.023 260.879C441.954 258.912 444.607 256.56 446.912 253.887C447.286 253.397 447.627 252.883 447.931 252.347C448.047 252.148 448.147 251.941 448.23 251.726L448.319 251.472L448.53 250.951C448.525 250.984 448.525 251.017 448.53 251.051C448.53 251.051 448.53 250.995 448.53 250.851C448.53 250.707 448.53 249.998 448.463 249.344C448.316 247.724 448.072 246.115 447.732 244.524C447.366 242.73 446.879 240.846 446.325 238.984C445.217 235.151 443.909 231.228 442.436 227.24C440.962 223.251 439.411 219.306 437.826 215.329L435.2 209.412L432.752 203.595L432.641 203.34C431.607 200.453 431.698 197.283 432.898 194.461C434.098 191.639 436.317 189.373 439.113 188.115C441.909 186.856 445.077 186.698 447.985 187.672C450.892 188.646 453.326 190.68 454.801 193.368L454.834 193.291Z" fill="white"/>
<path d="M416.885 272.767L407.877 272.922L412.575 288.08C415.349 287.652 418.036 286.776 420.53 285.487C421.979 284.65 423.052 283.291 423.53 281.688C424.008 280.085 423.854 278.36 423.101 276.867L422.913 276.49C422.367 275.359 421.51 274.408 420.442 273.749C419.374 273.089 418.14 272.748 416.885 272.767Z" fill="#CE7A63"/>
<path d="M398.282 282.706L400.83 287.725C401.319 288.692 402.136 289.453 403.135 289.871C404.134 290.289 405.25 290.338 406.282 290.008L412.575 288.025L407.877 272.922L400.387 276.523C399.838 276.786 399.347 277.155 398.942 277.61C398.538 278.064 398.229 278.596 398.033 279.172C397.836 279.748 397.757 280.357 397.8 280.964C397.843 281.571 398.007 282.163 398.282 282.706Z" fill="#CE7A63"/>
<path opacity="0.2" d="M435.987 111.709C426.081 108.074 418.148 108.163 412.985 109.005C412.578 109.08 412.207 109.285 411.928 109.591C411.649 109.896 411.478 110.284 411.44 110.696C411.402 111.108 411.5 111.521 411.719 111.872C411.938 112.223 412.266 112.492 412.652 112.639C420.342 115.454 426.635 123.852 425.095 136.749C422.015 162.422 407.556 186.299 407.556 186.299L425.982 186.454C425.982 186.454 439.499 179.707 447.721 162.244C455.942 144.782 454.158 118.379 435.987 111.709Z" fill="black"/>
<path d="M407.633 185.922C407.633 185.922 429.982 156.86 430.713 133.747C431.444 110.634 406.78 109.282 406.78 109.282C406.78 109.282 414.47 103.243 433.461 106.822C452.452 110.401 458.568 136.151 453.327 154.732C450.016 166.168 444.38 176.797 436.774 185.956L405.75 194.676L407.633 185.922Z" fill="#263238"/>
<path opacity="0.4" d="M407.633 185.922C407.633 185.922 429.982 156.86 430.713 133.747C431.444 110.634 406.78 109.282 406.78 109.282C406.78 109.282 414.47 103.243 433.461 106.822C452.452 110.401 458.568 136.151 453.327 154.732C450.016 166.168 444.38 176.797 436.774 185.956L405.75 194.676L407.633 185.922Z" fill="white"/>
<path d="M369.042 378.692V244.015C369.042 237.62 363.858 232.436 357.463 232.436H140.572C134.177 232.436 128.993 237.62 128.993 244.015V378.692C128.993 385.087 134.177 390.271 140.572 390.271H357.463C363.858 390.271 369.042 385.087 369.042 378.692Z" fill="#F57523"/>
<path d="M139.918 394.614C133.891 394.614 127.664 396.232 126.002 398.237L81.582 447.964C79.2331 450.823 83.2551 457.515 90.579 457.515H355.757C363.081 457.515 369.053 455.155 369.053 452.297V398.237C369.053 396.232 364.144 394.614 358.117 394.614H139.918Z" fill="#F57523"/>
<path opacity="0.2" d="M139.918 394.614C133.891 394.614 127.664 396.232 126.002 398.237L81.582 447.964C79.2331 450.823 83.2551 457.515 90.579 457.515H355.757C363.081 457.515 369.053 455.155 369.053 452.297V398.237C369.053 396.232 364.144 394.614 358.117 394.614H139.918Z" fill="black"/>
<path d="M139.918 390.282C133.891 390.282 127.664 391.889 126.002 393.905L81.582 447.964C79.2331 450.823 83.2551 453.183 90.579 453.183H355.757C363.081 453.183 369.053 450.823 369.053 447.964V393.905C369.053 391.889 364.144 390.282 358.117 390.282H139.918Z" fill="#F57523"/>
<path opacity="0.2" d="M134.733 398.47L116.118 422.336C114.844 423.976 117.459 425.306 121.969 425.306H347.258C351.779 425.306 355.491 423.976 355.568 422.336L356.554 398.47C356.61 397.074 353.33 395.955 349.219 395.955H144.14C140.029 395.955 135.819 397.074 134.733 398.47Z" fill="black"/>
<path opacity="0.2" d="M188.36 431.799L180.371 446.524C179.95 447.311 181.247 447.964 183.274 447.964H267.316C269.344 447.964 271.172 447.311 271.394 446.524L275.537 431.754C275.737 431.034 274.341 430.447 272.413 430.447H192.57C190.642 430.491 188.759 431.079 188.36 431.799Z" fill="black"/>
<path opacity="0.7" d="M357.64 235.561H140.384C135.812 235.561 132.107 239.267 132.107 243.838V378.881C132.107 383.452 135.812 387.157 140.384 387.157H357.64C362.211 387.157 365.917 383.452 365.917 378.881V243.838C365.917 239.267 362.211 235.561 357.64 235.561Z" fill="white"/>
<path d="M310.041 292.002H187.983V364.665H310.041V292.002Z" fill="#F57523"/>
<path opacity="0.1" d="M310.041 292.002H187.983V364.665H310.041V292.002Z" fill="black"/>
<path opacity="0.1" d="M249.012 331.636L310.041 292.002H187.983L249.012 331.636Z" fill="#263238"/>
<path d="M256.635 257.322L310.041 292.002H187.983L241.389 257.322C243.658 255.847 246.306 255.061 249.012 255.061C251.718 255.061 254.366 255.847 256.635 257.322Z" fill="#F57523"/>
<path opacity="0.2" d="M192.515 292.002L243.261 259.05C244.973 257.939 246.971 257.347 249.012 257.347C251.053 257.347 253.051 257.939 254.762 259.05L305.509 292.002H192.515Z" fill="#263238"/>
<path d="M253.998 265.045C253.78 265.045 253.572 264.958 253.418 264.805C253.264 264.651 253.178 264.442 253.178 264.225V227.362C253.178 227.144 253.264 226.936 253.418 226.782C253.572 226.628 253.78 226.542 253.998 226.542C254.215 226.542 254.424 226.628 254.578 226.782C254.731 226.936 254.818 227.144 254.818 227.362V264.225C254.818 264.442 254.731 264.651 254.578 264.805C254.424 264.958 254.215 265.045 253.998 265.045Z" fill="#263238"/>
<path d="M253.998 228.182C253.343 228.181 252.703 227.988 252.157 227.625C251.612 227.262 251.186 226.746 250.933 226.142C250.68 225.538 250.611 224.872 250.734 224.229C250.858 223.586 251.169 222.994 251.629 222.527C252.088 222.06 252.675 221.739 253.316 221.604C253.957 221.47 254.624 221.528 255.232 221.771C255.84 222.014 256.363 222.431 256.735 222.971C257.107 223.51 257.311 224.147 257.322 224.802C257.329 225.243 257.249 225.682 257.085 226.091C256.921 226.501 256.678 226.874 256.368 227.188C256.059 227.503 255.69 227.753 255.283 227.923C254.876 228.094 254.439 228.182 253.998 228.182ZM253.998 223.063C253.654 223.063 253.318 223.165 253.032 223.356C252.745 223.547 252.522 223.819 252.391 224.136C252.259 224.454 252.225 224.804 252.292 225.142C252.359 225.479 252.525 225.789 252.768 226.032C253.011 226.275 253.321 226.441 253.659 226.508C253.996 226.575 254.346 226.541 254.664 226.409C254.982 226.278 255.253 226.055 255.444 225.769C255.636 225.483 255.738 225.146 255.738 224.802C255.738 224.341 255.554 223.898 255.228 223.572C254.902 223.246 254.459 223.063 253.998 223.063Z" fill="#263238"/>
<path d="M217.644 255.527L201.346 260.424L198.82 299.038L249.012 331.635L299.204 299.038L301.775 262.851L217.644 255.527Z" fill="white"/>
<path opacity="0.6" d="M269.333 298.351C269.073 301.878 267.772 305.248 265.596 308.035C263.42 310.823 260.466 312.902 257.108 314.01C253.75 315.117 250.138 315.204 246.731 314.259C243.323 313.313 240.273 311.378 237.966 308.699C235.658 306.019 234.198 302.715 233.769 299.205C233.34 295.695 233.962 292.136 235.556 288.98C237.151 285.823 239.645 283.211 242.725 281.473C245.805 279.735 249.331 278.949 252.857 279.216C255.198 279.383 257.483 280.011 259.58 281.065C261.677 282.118 263.545 283.576 265.077 285.355C266.608 287.133 267.773 289.197 268.503 291.428C269.233 293.658 269.515 296.011 269.333 298.351Z" fill="#F57523"/>
<path d="M264.812 305.808C263.263 308.214 261.094 310.156 258.533 311.431C255.972 312.706 253.114 313.266 250.261 313.052C247.408 312.837 244.666 311.856 242.325 310.213C239.983 308.569 238.128 306.324 236.957 303.714C241.288 301.275 246.245 300.173 251.201 300.545C256.158 300.918 260.894 302.749 264.812 305.808Z" fill="white"/>
<path d="M258.864 293.134C259.593 289.292 257.069 285.587 253.228 284.858C249.386 284.13 245.681 286.653 244.952 290.495C244.223 294.337 246.747 298.042 250.589 298.77C254.431 299.499 258.136 296.975 258.864 293.134Z" fill="white"/>
<path d="M245.976 273.056C243.95 273.046 241.988 272.342 240.418 271.062C238.847 269.782 237.763 268.002 237.345 266.02L236.48 266.884C236.326 266.966 236.148 266.996 235.975 266.97C235.802 266.944 235.642 266.863 235.518 266.739C235.394 266.615 235.313 266.455 235.287 266.281C235.261 266.108 235.291 265.931 235.372 265.776L237.444 263.693C237.559 263.58 237.705 263.503 237.863 263.472C238.021 263.441 238.184 263.457 238.333 263.518C238.482 263.58 238.61 263.684 238.7 263.817C238.79 263.951 238.839 264.108 238.84 264.269C238.84 266.167 239.59 267.987 240.927 269.334C242.264 270.681 244.078 271.445 245.976 271.46C246.193 271.46 246.402 271.546 246.556 271.7C246.71 271.854 246.796 272.063 246.796 272.28C246.796 272.497 246.71 272.706 246.556 272.86C246.402 273.014 246.193 273.1 245.976 273.1V273.056Z" fill="#263238"/>
<path d="M217.644 255.527L214.808 264.225L201.346 260.424" fill="#EADDD3"/>
<path d="M217.644 255.527L216.27 262.674L201.346 260.424" fill="#F5EBE4"/>
<path d="M238.608 324.866L187.983 364.665H310.041L259.416 324.866C256.449 322.535 252.785 321.268 249.012 321.268C245.239 321.268 241.575 322.535 238.608 324.866Z" fill="#F57523"/>
</svg>
