<svg xmlns="http://www.w3.org/2000/svg" width="173" height="42" viewBox="0 0 173 42" fill="none">
  <path d="M153.586 32.4322H146.998L145.905 35.6402H141.43L147.868 18.189H152.765L159.203 35.6402H154.678L153.586 32.4322ZM152.49 29.202L150.303 22.7389L148.09 29.202H152.49ZM165.245 32.2104H173V35.6402H160.52V32.4072L168.15 21.4691H160.617V18.0642H172.947V21.2971L165.245 32.2104Z" fill="#416BA9"/>
  <path d="M66.0468 33.2527C65.5754 34.0319 64.8795 34.653 63.959 35.116C63.0384 35.579 61.9238 35.8119 60.6151 35.8119C58.6437 35.8119 57.019 35.3323 55.7435 34.3701C54.4681 33.408 53.7722 32.066 53.6557 30.3442H58.1807C58.2473 31.0069 58.4829 31.5282 58.8905 31.9108C59.2953 32.2934 59.8138 32.4819 60.4432 32.4819C60.9894 32.4819 61.422 32.3322 61.7353 32.0355C62.0514 31.7361 62.2066 31.3396 62.2066 30.8433C62.2066 30.3969 62.0625 30.0226 61.7713 29.7231C61.4802 29.4237 61.1197 29.1797 60.69 28.9911C60.2602 28.7998 59.6613 28.5725 58.8988 28.3063C57.787 27.9264 56.8803 27.5577 56.1761 27.2C55.4718 26.8451 54.8674 26.3127 54.36 25.6085C53.8553 24.9042 53.603 23.9892 53.603 22.8608C53.603 21.8155 53.8692 20.9144 54.3988 20.1519C54.9284 19.3894 55.6631 18.8043 56.5975 18.3995C57.5347 17.9947 58.6077 17.7896 59.8166 17.7896C61.7713 17.7896 63.3268 18.2526 64.4775 19.1814C65.6281 20.1103 66.2797 21.3857 66.4294 23.0105H61.8296C61.7464 22.431 61.5356 21.9707 61.1946 21.6297C60.8536 21.2914 60.3961 21.1195 59.8138 21.1195C59.3175 21.1195 58.9155 21.2526 58.6077 21.5188C58.2999 21.785 58.1474 22.1731 58.1474 22.6861C58.1474 23.102 58.2833 23.4541 58.5578 23.7425C58.8323 24.0336 59.1761 24.2693 59.5892 24.4523C60.0024 24.6353 60.5985 24.8654 61.3804 25.1482C62.5061 25.5309 63.4266 25.9052 64.1392 26.2795C64.8518 26.651 65.4645 27.1945 65.9775 27.907C66.4904 28.6196 66.7483 29.5485 66.7483 30.6908C66.7538 31.6224 66.5181 32.4736 66.0468 33.2527ZM82.1671 29.4736H72.5459C72.5958 30.5189 72.8592 31.2675 73.3417 31.7222C73.8214 32.1769 74.4341 32.4071 75.18 32.4071C75.8094 32.4071 76.3306 32.249 76.7465 31.9357C77.1597 31.6196 77.4342 31.2148 77.5672 30.7185H82.0673C81.8843 31.6973 81.4878 32.5707 80.875 33.3415C80.2623 34.1123 79.4832 34.7167 78.5377 35.1576C77.5922 35.5957 76.5414 35.8175 75.3796 35.8175C74.021 35.8175 72.8149 35.5319 71.7613 34.9607C70.7077 34.3895 69.8842 33.5661 69.288 32.4875C68.6919 31.4117 68.3925 30.1501 68.3925 28.7083C68.3925 27.2499 68.6864 25.9856 69.2742 24.9181C69.862 23.8506 70.6882 23.0299 71.7474 22.456C72.8066 21.8848 74.0182 21.5992 75.3768 21.5992C76.7521 21.5992 77.961 21.882 79.0063 22.4449C80.0516 23.0077 80.8584 23.8007 81.4296 24.8183C82.0007 25.8386 82.2863 27.0087 82.2863 28.3368C82.2919 28.6806 82.2503 29.0605 82.1671 29.4736ZM77.2567 25.6334C76.7521 25.1787 76.1255 24.9486 75.3796 24.9486C74.6005 24.9486 73.9545 25.1815 73.4415 25.6445C72.9286 26.1076 72.6374 26.7869 72.5709 27.6825H77.9915C78.0081 26.773 77.7613 26.0909 77.2567 25.6334ZM95.268 23.0743C96.4769 24.0613 97.2394 25.4144 97.5554 27.139H93.0554C92.9223 26.5429 92.6478 26.0798 92.2347 25.7471C91.8216 25.4144 91.2975 25.2508 90.6681 25.2508C89.9223 25.2508 89.3095 25.5447 88.8298 26.1325C88.3502 26.7203 88.1089 27.5799 88.1089 28.7056C88.1089 29.834 88.3502 30.6908 88.8298 31.2786C89.3095 31.8664 89.9223 32.1603 90.6681 32.1603C91.2975 32.1603 91.8188 31.994 92.2347 31.664C92.6478 31.3313 92.9223 30.8682 93.0554 30.2721H97.5554C97.2394 31.9967 96.4769 33.3498 95.268 34.3369C94.0591 35.3239 92.5591 35.8147 90.7679 35.8147C89.4093 35.8147 88.2032 35.5291 87.1496 34.9579C86.096 34.3868 85.2725 33.5633 84.6764 32.4847C84.0802 31.4089 83.7808 30.1474 83.7808 28.7056C83.7808 27.2471 84.0747 25.9828 84.6625 24.9153C85.2503 23.8478 86.0766 23.0271 87.1357 22.4532C88.1949 21.882 89.4066 21.5964 90.7652 21.5964C92.5563 21.5937 94.0563 22.0872 95.268 23.0743ZM113.562 21.7683V35.64H109.287V33.1307C108.887 33.9431 108.297 34.5892 107.509 35.0688C106.722 35.5485 105.807 35.7897 104.762 35.7897C103.17 35.7897 101.906 35.2602 100.971 34.1982C100.034 33.1391 99.5656 31.6806 99.5656 29.8229V21.7683H103.791V29.3017C103.791 30.2472 104.035 30.9791 104.523 31.5004C105.011 32.0217 105.671 32.2823 106.5 32.2823C107.362 32.2823 108.042 32.0078 108.538 31.4616C109.034 30.9154 109.284 30.1363 109.284 29.1242V21.7656H113.562V21.7683ZM122.798 22.3645C123.635 21.8682 124.542 21.6186 125.521 21.6186V26.1686H124.303C123.175 26.1686 122.302 26.4098 121.68 26.8895C121.059 27.3691 120.749 28.1815 120.749 29.3266V35.64H116.498V21.7683H120.749V24.3774C121.278 23.5345 121.961 22.8635 122.798 22.3645ZM140.36 29.4736H130.739C130.789 30.5189 131.052 31.2675 131.535 31.7222C132.014 32.1769 132.627 32.4071 133.373 32.4071C134.002 32.4071 134.523 32.249 134.939 31.9357C135.353 31.6196 135.627 31.2148 135.76 30.7185H140.26C140.077 31.6973 139.681 32.5707 139.068 33.3415C138.455 34.1123 137.676 34.7167 136.731 35.1576C135.785 35.5957 134.734 35.8175 133.572 35.8175C132.214 35.8175 131.008 35.5319 129.957 34.9607C128.903 34.3895 128.08 33.5661 127.484 32.4875C126.888 31.4117 126.588 30.1501 126.588 28.7083C126.588 27.2499 126.882 25.9856 127.47 24.9181C128.058 23.8506 128.884 23.0299 129.943 22.456C131.002 21.8848 132.214 21.5992 133.572 21.5992C134.948 21.5992 136.159 21.882 137.202 22.4449C138.247 23.0077 139.054 23.8007 139.625 24.8183C140.196 25.8386 140.482 27.0087 140.482 28.3368C140.485 28.6806 140.443 29.0605 140.36 29.4736ZM135.45 25.6334C134.945 25.1787 134.318 24.9486 133.572 24.9486C132.793 24.9486 132.147 25.1815 131.634 25.6445C131.121 26.1076 130.83 26.7869 130.764 27.6825H136.184C136.201 26.773 135.957 26.0909 135.45 25.6334Z" fill="#EE7623"/>
  <path d="M1.00335 20.0715L1 20.0749" stroke="#929497" strokeWidth="0.5" stroke-miterlimit="10" stroke-dasharray="2 2"/>
  <path d="M47.0289 12.3801V19.808C47.0289 17.9115 46.4966 16.1426 45.5733 14.637C44.7554 13.3034 43.6296 12.1804 42.2988 11.3597C42.0575 11.21 41.808 11.0741 41.5557 10.9494C41.4642 10.5945 41.3533 10.2451 41.2285 9.90406H44.5529C45.9199 9.90129 47.0289 11.0104 47.0289 12.3801Z" fill="#8E2E1D"/>
  <path d="M41.2289 9.90121H41.1956L40.5773 10.5195L36.2436 14.8532H27.2241V0C33.69 0 39.191 4.13128 41.2289 9.90121Z" fill="#F17E21"/>
  <path d="M36.2463 14.8535L27.8423 23.2575L27.2268 23.8758V14.8535H36.2463Z" fill="#FDC459"/>
  <path d="M34.6519 9.90129C34.6519 10.0094 34.6464 10.1148 34.6298 10.2201C34.4745 11.4401 33.4347 12.3801 32.1732 12.3801C31.7296 12.3801 31.3136 12.2636 30.956 12.0612C30.2046 11.6342 29.7 10.8274 29.7 9.90129C29.7 8.53436 30.809 7.42529 32.1759 7.42529C33.5456 7.42807 34.6519 8.53436 34.6519 9.90129Z" fill="white"/>
  <path d="M27.2267 0V14.8532H12.3735C12.3735 10.7524 14.0371 7.03982 16.7239 4.35032C19.4106 1.6636 23.1232 0 27.2267 0Z" fill="#DA5426"/>
  <path d="M34.6519 29.7095C33.2822 29.7095 32.1731 30.8185 32.1731 32.1855V41.1329C25.796 42.3279 19.0722 41.1911 13.3633 37.7252L22.2497 28.8555C23.8024 29.41 25.4799 29.7122 27.2267 29.7122H34.6519V29.7095Z" fill="#8E2E1D"/>
  <path d="M22.2497 28.8524L13.3633 37.7221C11.5666 36.6325 9.86969 35.3099 8.31977 33.76C4.42971 29.8699 1.99253 25.0843 1.00269 20.0713L16.721 4.35303C14.0342 7.04252 12.3706 10.7551 12.3706 14.8559C12.3734 21.3135 16.4936 26.8089 22.2497 28.8524Z" fill="#B64A26"/>
  <path d="M47.0291 19.8081C47.0291 25.2786 42.5956 29.7094 37.1279 29.7094H27.2267C25.4799 29.7094 23.8052 29.4099 22.2498 28.8526L27.845 23.2573L40.5799 10.5197L41.1982 9.90137H41.2315C41.3562 10.2424 41.4671 10.5945 41.5586 10.9467C41.811 11.0714 42.0605 11.2073 42.3017 11.357C43.6326 12.1777 44.7583 13.3007 45.5763 14.6343C46.4968 16.1399 47.0291 17.9116 47.0291 19.8081Z" fill="#DA5426"/>
  <path d="M27.2266 14.8531V29.7063C25.4798 29.7063 23.8051 29.4069 22.2496 28.8496C16.4936 26.8061 12.3706 21.3107 12.3706 14.8503H27.2266V14.8531Z" fill="#F17E21"/>
</svg>