<svg width="280" height="114" viewBox="0 0 280 114" fill="none" xmlns="http://www.w3.org/2000/svg">
<path d="M269.018 4.44913H10.9824V46.6239H269.018V4.44913Z" fill="black"/>
<path d="M203.013 31.3492C203.013 32.5143 202.791 33.6083 202.348 34.6291C201.906 35.6504 201.304 36.5435 200.542 37.3105C199.781 38.0764 198.893 38.6818 197.877 39.1272C196.862 39.5726 195.776 39.795 194.617 39.795H180.618V11.6289H194.617C195.776 11.6289 196.862 11.8511 197.877 12.2968C198.893 12.7422 199.781 13.3476 200.542 14.1133C201.304 14.8793 201.906 15.7734 202.348 16.7942C202.791 17.8156 203.013 18.9095 203.013 20.0746C203.013 20.5988 202.941 21.1357 202.798 21.6848C202.654 22.2354 202.452 22.7652 202.192 23.2758C201.932 23.7868 201.62 24.2514 201.255 24.6712C200.89 25.0904 200.487 25.4367 200.044 25.7119C200.501 25.9611 200.91 26.2981 201.275 26.7234C201.639 27.1488 201.952 27.617 202.212 28.1276C202.473 28.6384 202.671 29.1719 202.807 29.7286C202.944 30.2851 203.013 30.8251 203.013 31.3492ZM186.221 22.9027H194.617C195.007 22.9027 195.371 22.8312 195.71 22.6872C196.049 22.5431 196.345 22.3434 196.599 22.0878C196.853 21.8325 197.051 21.5316 197.194 21.1843C197.337 20.8379 197.409 20.4669 197.409 20.0746C197.409 19.6822 197.337 19.3155 197.194 18.9746C197.051 18.6342 196.853 18.3364 196.599 18.0812C196.345 17.826 196.049 17.6262 195.71 17.4821C195.371 17.3377 195.007 17.2657 194.617 17.2657H186.221V22.9027ZM186.221 34.1571H194.617C195.007 34.1571 195.371 34.0862 195.71 33.9418C196.049 33.7977 196.345 33.598 196.599 33.3424C196.853 33.0873 197.051 32.7896 197.194 32.4487C197.337 32.1082 197.409 31.7418 197.409 31.3492C197.409 30.9559 197.337 30.5894 197.194 30.2488C197.051 29.9086 196.853 29.6106 196.599 29.3554C196.345 29.1 196.049 28.9007 195.71 28.7567C195.371 28.6122 195.007 28.5405 194.617 28.5405H186.221V34.1571Z" fill="white"/>
<path d="M234.681 25.7019C234.681 27.0376 234.509 28.3244 234.164 29.5616C233.818 30.7989 233.335 31.958 232.709 33.0382C232.085 34.1185 231.329 35.1042 230.445 35.9946C229.559 36.8849 228.582 37.6475 227.516 38.2824C226.448 38.9183 225.296 39.409 224.06 39.7551C222.823 40.1024 221.541 40.276 220.213 40.276C218.886 40.276 217.608 40.1024 216.377 39.7551C215.146 39.409 213.995 38.9183 212.921 38.2824C211.848 37.6475 210.868 36.8849 209.983 35.9947C209.098 35.1043 208.339 34.1187 207.708 33.0383C207.076 31.9582 206.589 30.799 206.243 29.5618C205.899 28.3246 205.727 27.0377 205.727 25.702C205.727 24.3662 205.899 23.0773 206.243 21.8325C206.589 20.5888 207.076 19.4304 207.708 18.3559C208.339 17.283 209.098 16.3009 209.983 15.41C210.868 14.5193 211.848 13.7601 212.921 13.1311C213.995 12.5028 215.146 12.0158 216.377 11.6686C217.608 11.3212 218.886 11.1476 220.213 11.1476C221.541 11.1476 222.823 11.3212 224.06 11.6685C225.296 12.0158 226.448 12.5028 227.516 13.131C228.582 13.7601 229.559 14.5194 230.445 15.41C231.329 16.3009 232.085 17.283 232.709 18.3559C233.335 19.4303 233.818 20.5888 234.164 21.8325C234.509 23.0772 234.681 24.3661 234.681 25.7019ZM229.117 25.7019C229.117 24.4715 228.882 23.3093 228.414 22.216C227.945 21.1225 227.31 20.1729 226.51 19.3673C225.709 18.5623 224.766 17.924 223.68 17.4526C222.592 16.9814 221.437 16.7455 220.213 16.7455C218.977 16.7455 217.819 16.9814 216.738 17.4526C215.657 17.9241 214.714 18.5623 213.907 19.3674C213.1 20.1729 212.463 21.1224 211.994 22.2161C211.525 23.3092 211.291 24.4714 211.291 25.7018C211.291 26.9328 211.525 28.0887 211.994 29.1691C212.463 30.2486 213.1 31.1957 213.907 32.007C214.714 32.8192 215.657 33.4605 216.738 33.9318C217.819 34.4033 218.977 34.6388 220.213 34.6388C221.437 34.6388 222.592 34.4033 223.68 33.9316C224.766 33.4605 225.709 32.819 226.51 32.007C227.31 31.1957 227.945 30.2487 228.414 29.1691C228.882 28.0887 229.117 26.9328 229.117 25.7019Z" fill="white"/>
<path d="M243.341 12.1416L241.642 9.2843H232.53L234.273 12.1416H243.341Z" fill="#26ABE2"/>
<path d="M263.509 6.71645H254.344L247.588 18.118L247.076 18.9829L243.911 13.6622H234.906L242.256 25.7118L230.669 44.7069H239.78L247.076 32.4409L250.133 37.6009H259.174L251.921 25.7118L263.509 6.71645Z" fill="white"/>
<path d="M251.204 39.2147L252.992 42.2324H262.156L260.316 39.2147H251.204Z" fill="#26ABE2"/>
<path d="M37.9363 10.9489H46.504V40.475H37.2263L25.0591 23.2586V40.475H16.4913V11.0299H25.8193L37.9363 28.206V10.9489Z" fill="#26ABE2"/>
<path d="M76.5793 17.7473H61.2685V22.2123H73.6894V29.0108H61.2685V33.6764H76.5793V40.4749H52.7003V10.989L76.5794 10.9489V17.7473H76.5793Z" fill="#26ABE2"/>
<path d="M111.054 10.8284L100.102 25.2293L112.017 40.5954H101.928L95.1344 31.8258L88.4427 40.5954L78.4547 40.5954L90.065 25.2693L78.9105 10.8283L88.9495 10.8284L95.0839 18.7125L101.016 10.8284H111.054Z" fill="#26ABE2"/>
<path d="M128.748 40.4945C126.855 40.4945 125.064 40.2203 123.374 39.6702C121.683 39.1208 120.18 38.3365 118.862 37.317C117.51 36.245 116.47 35.0377 115.744 33.6963C115.016 32.3554 114.637 30.9209 114.603 29.3925V10.9287H123.171V29.3527C123.171 30.5331 123.728 31.5645 124.844 32.4501C125.959 33.2811 127.278 33.6963 128.798 33.6963C129.542 33.6963 130.252 33.5762 130.927 33.3348C131.603 33.0934 132.195 32.7713 132.702 32.3691C133.21 31.967 133.597 31.4983 133.869 30.9614C134.139 30.4253 134.274 29.8486 134.274 29.2316V10.9287H142.842V29.1915C142.875 30.7198 142.528 32.1679 141.803 33.5356C141.075 34.9039 140.078 36.0965 138.811 37.1157C137.544 38.1352 136.056 38.9467 134.35 39.549C132.643 40.1528 130.827 40.4681 128.9 40.4945H128.748Z" fill="#26ABE2"/>
<path d="M159.014 41.0716C157.83 41.0716 156.657 40.9446 155.491 40.6899C154.324 40.4357 153.217 40.0404 152.17 39.5034C150.345 38.5646 148.926 37.3514 147.911 35.8632C146.897 34.3744 146.391 32.745 146.391 30.9757H154.958C154.958 31.7805 155.177 32.4032 155.618 32.8458C156.056 33.2888 156.444 33.5905 156.784 33.751C157.392 34.0731 158.052 34.2472 158.761 34.2744C159.471 34.3007 160.163 34.1934 160.84 33.9522C161.312 33.7913 161.693 33.5905 161.98 33.3488C162.266 33.1078 162.487 32.8733 162.64 32.6449C162.792 32.4173 162.884 32.1965 162.918 31.9816C162.952 31.767 162.969 31.5928 162.969 31.4585C162.969 31.3243 162.952 31.1498 162.918 30.9348C162.884 30.7209 162.792 30.4933 162.64 30.2513C162.487 30.0103 162.266 29.7759 161.98 29.5475C161.693 29.3199 161.312 29.1115 160.84 28.924C160.467 28.7903 160.07 28.6694 159.647 28.5621C159.225 28.4555 158.777 28.3345 158.305 28.2004C157.459 27.986 156.58 27.7444 155.668 27.4759C154.756 27.208 153.843 26.8464 152.931 26.3902C151.746 25.8006 150.751 25.0621 149.939 24.1775C149.128 23.2928 148.545 22.3409 148.191 21.3213C147.836 20.3029 147.717 19.2501 147.836 18.1634C147.953 17.0773 148.333 16.0385 148.976 15.0463C149.584 14.1346 150.345 13.3437 151.258 12.6725C152.17 12.0028 153.184 11.4726 154.299 11.0841C155.415 10.6954 156.614 10.4607 157.899 10.3796C159.183 10.2995 160.484 10.3938 161.803 10.6612C163.084 10.9033 164.244 11.285 165.287 11.8076C166.328 12.3308 167.228 12.9618 167.982 13.6989C168.739 14.4364 169.319 15.261 169.722 16.1724C170.126 17.0845 170.328 18.0365 170.328 19.0284H161.803C161.803 18.4117 161.557 17.9828 161.068 17.7415C160.577 17.5001 160.146 17.339 159.774 17.259C159.707 17.259 159.546 17.2384 159.293 17.1985C159.039 17.1578 158.752 17.1578 158.431 17.1985C158.109 17.2384 157.78 17.3333 157.443 17.4798C157.105 17.6273 156.835 17.8618 156.631 18.1836C156.36 18.6127 156.31 19.0621 156.479 19.5312C156.648 20.001 156.986 20.3693 157.493 20.6377C157.966 20.8526 158.49 21.0468 159.065 21.2208C159.64 21.3959 160.248 21.5627 160.89 21.7236C161.465 21.8578 162.047 22.0057 162.638 22.1662C163.227 22.3273 163.825 22.5147 164.43 22.7293C166.648 23.5339 168.386 24.7144 169.647 26.2691C170.907 27.8249 171.536 29.5541 171.536 31.4585C171.536 33.3352 170.907 35.0518 169.647 36.6071C168.386 38.1629 166.648 39.3426 164.43 40.147C163.557 40.4692 162.663 40.7035 161.751 40.8509C160.839 40.9978 159.927 41.0716 159.014 41.0716Z" fill="#26ABE2"/>
<path d="M264.426 48.8453L20.8112 52.914L21.2254 78.0182L264.84 73.9495L264.426 48.8453Z" fill="black"/>
<path d="M33.104 66.8944L33.1655 70.627L30.2385 70.6759L30.1764 66.8985L26.1201 60.3317L29.2097 60.2801L31.7317 64.3735L34.1175 60.1982L36.9557 60.151L33.104 66.8944Z" fill="white"/>
<path d="M39.6838 70.0276C38.8039 69.5762 38.1082 68.9432 37.5971 68.1286C37.0858 67.314 36.8218 66.3913 36.8048 65.3601C36.7878 64.329 37.0213 63.398 37.5055 62.5667C37.9895 61.7354 38.664 61.0797 39.5285 60.5991C40.393 60.1187 41.3721 59.8692 42.4661 59.8509C43.56 59.8328 44.547 60.0494 45.4268 60.5008C46.3066 60.9523 47.002 61.5853 47.5134 62.3999C48.0245 63.2146 48.2887 64.1374 48.3057 65.1684C48.3226 66.1996 48.089 67.1306 47.605 67.9617C47.1208 68.793 46.4465 69.4488 45.5821 69.9293C44.7176 70.4099 43.7384 70.6592 42.6444 70.6774C41.5505 70.6956 40.5636 70.4791 39.6838 70.0276ZM44.0172 67.843C44.4368 67.5882 44.7661 67.2331 45.0052 66.7777C45.244 66.3226 45.3588 65.8027 45.3491 65.2175C45.3395 64.6326 45.2076 64.1168 44.954 63.6695C44.7001 63.2227 44.3592 62.8788 43.9315 62.6378C43.5036 62.3973 43.0285 62.281 42.5062 62.2897C41.9838 62.2985 41.5127 62.4305 41.0932 62.6852C40.6735 62.9403 40.3441 63.2953 40.1053 63.7504C39.8663 64.2057 39.7516 64.7257 39.7614 65.3107C39.7709 65.8958 39.9027 66.4116 40.1565 66.8586C40.4101 67.3058 40.751 67.6497 41.1789 67.8902C41.6067 68.1312 42.0817 68.247 42.6042 68.2384C43.1264 68.2297 43.5975 68.098 44.0172 67.843Z" fill="white"/>
<path d="M51.1013 69.2719C50.2349 68.4436 49.7891 67.2558 49.7636 65.7092L49.6686 59.939L52.5955 59.8903L52.6891 65.5712C52.7166 67.2368 53.3855 68.0587 54.6963 68.0368C55.9972 68.0151 56.634 67.1715 56.6065 65.5058L56.5129 59.825L59.3954 59.7769L59.4905 65.5471C59.516 67.0938 59.1093 68.2956 58.2709 69.1524C57.4322 70.0094 56.2443 70.4506 54.707 70.4762C53.1695 70.5018 51.9675 70.1005 51.1013 69.2719Z" fill="white"/>
<path d="M66.0256 67.3125L64.4291 67.339L64.4746 70.1051L61.5476 70.1539L61.3762 59.7438L66.1066 59.6649C67.0428 59.6494 67.8584 59.792 68.5534 60.0928C69.2483 60.3936 69.7878 60.8308 70.172 61.4046C70.556 61.9784 70.7545 62.657 70.7675 63.44C70.7799 64.1937 70.6156 64.8534 70.2751 65.4192C69.9345 65.9853 69.4416 66.4324 68.7964 66.7605L71.0824 69.9949L67.9485 70.0471L66.0256 67.3125ZM67.3341 62.3669C67.0241 62.1043 66.5686 61.978 65.9675 61.988L64.3414 62.0151L64.3916 65.0638L66.0177 65.0367C66.6187 65.0266 67.07 64.8877 67.3712 64.6199C67.6722 64.3522 67.8189 63.9753 67.811 63.4893C67.8029 63.0037 67.6439 62.6294 67.3341 62.3669Z" fill="white"/>
<path d="M76.6167 59.4897L79.5437 59.4409L79.7152 69.851L76.7882 69.8997L76.6167 59.4897Z" fill="#26ABE2"/>
<path d="M91.4731 59.2421L91.6446 69.6521L89.235 69.6922L84.5759 64.2214L84.6672 69.7684L81.7994 69.8162L81.6279 59.4063L84.0374 59.366L88.6967 64.837L88.6053 59.2898L91.4731 59.2421Z" fill="#26ABE2"/>
<path d="M103.388 59.0434L103.559 69.4535L101.15 69.4937L96.4906 64.0228L96.5819 69.5698L93.7141 69.6177L93.5427 59.2076L95.9522 59.1675L100.611 64.6384L100.52 59.0913L103.388 59.0434Z" fill="#26ABE2"/>
<path d="M107.89 68.8904C107.01 68.439 106.314 67.8061 105.803 66.9915C105.292 66.1769 105.028 65.2541 105.011 64.2229C104.994 63.1918 105.227 62.2608 105.712 61.4295C106.196 60.5984 106.87 59.9426 107.735 59.4619C108.599 58.9815 109.578 58.732 110.672 58.7138C111.766 58.6956 112.753 58.9122 113.633 59.3636C114.513 59.8152 115.208 60.4482 115.72 61.2627C116.231 62.0775 116.495 63.0002 116.512 64.0312C116.529 65.0624 116.295 65.9935 115.811 66.8246C115.327 67.656 114.653 68.3116 113.788 68.792C112.924 69.2727 111.945 69.522 110.851 69.5403C109.757 69.5583 108.77 69.3419 107.89 68.8904ZM112.223 66.7058C112.643 66.4511 112.972 66.0961 113.211 65.6406C113.45 65.1855 113.565 64.6655 113.555 64.0803C113.546 63.4954 113.414 62.9796 113.16 62.5325C112.906 62.0855 112.565 61.7417 112.138 61.5008C111.71 61.2601 111.235 61.1439 110.712 61.1526C110.19 61.1613 109.719 61.2934 109.299 61.548C108.88 61.8031 108.55 62.1582 108.311 62.6133C108.072 63.0687 107.958 63.5885 107.968 64.1735C107.977 64.7586 108.109 65.2746 108.363 65.7214C108.616 66.1686 108.957 66.5125 109.385 66.7531C109.813 66.994 110.288 67.11 110.81 67.1012C111.333 67.0925 111.804 66.9609 112.223 66.7058Z" fill="#26ABE2"/>
<path d="M128.104 58.6313L123.841 69.1153L120.959 69.1634L116.367 58.8269L119.531 58.7741L122.451 65.5089L125.207 58.6796L128.104 58.6313Z" fill="#26ABE2"/>
<path d="M135.427 66.8991L131.051 66.972L130.271 69.008L127.285 69.0579L131.682 58.5717L134.564 58.5235L139.318 68.8573L136.273 68.908L135.427 66.8991ZM134.534 64.7421L133.149 61.4331L131.873 64.7864L134.534 64.7421Z" fill="#26ABE2"/>
<path d="M141.699 60.7401L138.52 60.7931L138.482 58.4583L147.751 58.3037L147.789 60.6386L144.626 60.6913L144.759 68.7666L141.832 68.8153L141.699 60.7401Z" fill="#26ABE2"/>
<path d="M148.844 58.2856L151.771 58.2367L151.943 68.6469L149.016 68.6956L148.844 58.2856Z" fill="#26ABE2"/>
<path d="M164.322 58.0276L160.058 68.5114L157.176 68.5595L152.584 58.2232L155.748 58.1705L158.668 64.905L161.424 58.0758L164.322 58.0276Z" fill="#26ABE2"/>
<path d="M173.37 66.0136L173.407 68.289L165.099 68.4275L164.928 58.0174L173.043 57.8821L173.081 60.1574L167.862 60.2445L167.891 61.9993L172.489 61.9227L172.525 64.1237L167.928 64.2004L167.959 66.1039L173.37 66.0136Z" fill="#26ABE2"/>
<path d="M180.53 68.066C179.738 67.871 179.093 67.6043 178.595 67.2653L179.52 65.078C179.988 65.3778 180.529 65.6168 181.143 65.7947C181.757 65.973 182.36 66.0571 182.952 66.0472C184.075 66.0286 184.632 65.7366 184.623 65.1715C184.618 64.874 184.454 64.6562 184.132 64.5177C183.809 64.3795 183.292 64.2367 182.579 64.09C181.798 63.9345 181.145 63.7643 180.619 63.5797C180.093 63.3951 179.64 63.0928 179.259 62.6727C178.877 62.2528 178.68 61.6807 178.668 60.957C178.658 60.3226 178.821 59.7471 179.157 59.2307C179.494 58.7145 180.002 58.3017 180.682 57.9929C181.362 57.684 182.2 57.5213 183.195 57.5047C183.875 57.4934 184.547 57.5591 185.21 57.7017C185.872 57.8445 186.458 58.0603 186.965 58.3493L186.099 60.5504C185.105 60.0315 184.145 59.7796 183.218 59.7951C182.637 59.8049 182.215 59.8988 181.951 60.0767C181.688 60.2546 181.559 60.4825 181.563 60.7599C181.568 61.0376 181.729 61.2431 182.047 61.3767C182.364 61.5104 182.874 61.6455 183.576 61.7826C184.367 61.938 185.023 62.108 185.544 62.2927C186.065 62.4774 186.518 62.7773 186.904 63.1924C187.291 63.6074 187.49 64.1769 187.502 64.9005C187.512 65.5251 187.349 66.093 187.012 66.6044C186.676 67.1157 186.165 67.5285 185.48 67.8424C184.795 68.1562 183.96 68.3214 182.975 68.3378C182.137 68.3517 181.322 68.2612 180.53 68.066Z" fill="#26ABE2"/>
<path d="M191.16 67.502C190.28 67.0507 189.584 66.4178 189.073 65.6031C188.562 64.7885 188.298 63.8659 188.281 62.8346C188.264 61.8036 188.497 60.8725 188.982 60.0412C189.466 59.2101 190.14 58.5543 191.005 58.0736C191.869 57.5932 192.848 57.3438 193.942 57.3255C195.036 57.3072 196.023 57.5239 196.903 57.9754C197.783 58.4269 198.478 59.0599 198.989 59.8744C199.5 60.6891 199.765 61.6118 199.782 62.6428C199.799 63.674 199.565 64.6052 199.081 65.4363C198.597 66.2677 197.923 66.9234 197.058 67.4039C196.194 67.8845 195.214 68.1337 194.12 68.152C193.027 68.1702 192.04 67.9537 191.16 67.502ZM195.493 65.3175C195.913 65.0628 196.242 64.7078 196.481 64.2524C196.72 63.7972 196.835 63.2772 196.825 62.6921C196.816 62.1072 196.684 61.5913 196.43 61.1443C196.176 60.6973 195.835 60.3534 195.408 60.1126C194.98 59.8719 194.505 59.7557 193.982 59.7645C193.46 59.7731 192.989 59.9052 192.569 60.1598C192.15 60.4148 191.82 60.77 191.581 61.2251C191.342 61.6805 191.228 62.2005 191.237 62.7853C191.247 63.3704 191.379 63.8863 191.632 64.3332C191.886 64.7803 192.227 65.1242 192.655 65.3649C193.083 65.6058 193.558 65.7217 194.08 65.7129C194.603 65.7042 195.074 65.5726 195.493 65.3175Z" fill="#26ABE2"/>
<path d="M201.233 57.4122L204.16 57.3634L204.293 65.4387L209.23 65.3563L209.269 67.691L201.405 67.8222L201.233 57.4122Z" fill="#26ABE2"/>
<path d="M211.491 66.5979C210.625 65.7695 210.179 64.5817 210.153 63.0351L210.058 57.2651L212.985 57.2162L213.079 62.8972C213.106 64.5628 213.775 65.3846 215.086 65.3628C216.387 65.341 217.024 64.4975 216.996 62.8319L216.903 57.1509L219.785 57.1028L219.88 62.8729C219.906 64.4197 219.499 65.6215 218.661 66.4784C217.822 67.3354 216.634 67.7766 215.097 67.8023C213.559 67.8278 212.357 67.4265 211.491 66.5979Z" fill="#26ABE2"/>
<path d="M223.845 59.3707L220.667 59.4237L220.628 57.0888L229.897 56.9342L229.935 59.2691L226.772 59.3218L226.905 67.3971L223.978 67.4459L223.845 59.3707Z" fill="#26ABE2"/>
<path d="M230.991 56.916L233.918 56.8672L234.089 67.2772L231.162 67.326L230.991 56.916Z" fill="#26ABE2"/>
<path d="M238.434 66.714C237.554 66.2626 236.859 65.6296 236.348 64.8149C235.836 64.0004 235.572 63.0777 235.555 62.0464C235.538 61.0154 235.772 60.0845 236.256 59.2531C236.74 58.4218 237.414 57.7661 238.279 57.2855C239.143 56.805 240.123 56.5556 241.217 56.5374C242.31 56.5192 243.297 56.7358 244.177 57.1872C245.057 57.6388 245.753 58.2716 246.264 59.0862C246.775 59.9009 247.039 60.8237 247.056 61.8548C247.073 62.886 246.839 63.817 246.355 64.6482C245.871 65.4794 245.197 66.1352 244.332 66.6156C243.468 67.0962 242.489 67.3456 241.395 67.3637C240.301 67.382 239.314 67.1655 238.434 66.714ZM242.768 64.5294C243.187 64.2746 243.517 63.9195 243.756 63.4641C243.995 63.009 244.109 62.4891 244.1 61.9039C244.09 61.319 243.958 60.8031 243.705 60.3559C243.451 59.9091 243.11 59.5652 242.682 59.3242C242.254 59.0837 241.779 58.9674 241.257 58.9761C240.734 58.9849 240.263 59.1169 239.844 59.3716C239.424 59.6266 239.095 59.9816 238.856 60.4369C238.617 60.8921 238.502 61.4122 238.512 61.997C238.521 62.5822 238.653 63.0981 238.907 63.545C239.161 63.9922 239.502 64.3361 239.929 64.5766C240.357 64.8176 240.832 64.9334 241.355 64.9247C241.877 64.9161 242.348 64.7844 242.768 64.5294Z" fill="#26ABE2"/>
<path d="M258.353 56.4598L258.524 66.8699L256.115 66.91L251.456 61.4391L251.547 66.9862L248.679 67.0341L248.508 56.624L250.917 56.5838L255.576 62.0547L255.485 56.5077L258.353 56.4598Z" fill="#26ABE2"/>
<path d="M28.0586 76.7302L27.6882 106.068L256.587 108.992L256.957 79.6549L28.0586 76.7302Z" fill="white"/>
<path d="M38.7239 89.7741L35.576 89.7339L35.6052 87.4216L44.7849 87.5384L44.7559 89.8508L41.6227 89.8109L41.5221 97.8085L38.6232 97.7716L38.7239 89.7741Z" fill="#135C70"/>
<path d="M47.8457 97.4027C46.9877 96.9304 46.3172 96.2836 45.8347 95.4622C45.352 94.641 45.1172 93.7198 45.13 92.6985C45.1429 91.6774 45.4008 90.7625 45.904 89.9537C46.4071 89.145 47.0936 88.5155 47.9632 88.0648C48.8328 87.6144 49.8093 87.396 50.8927 87.4098C51.9762 87.4236 52.9468 87.6668 53.8049 88.1393C54.6628 88.6119 55.3331 89.2587 55.8158 90.0799C56.2983 90.9013 56.5334 91.8224 56.5205 92.8435C56.5077 93.8648 56.2495 94.7798 55.7465 95.5884C55.2432 96.3972 54.5569 97.0268 53.6874 97.4772C52.8177 97.9278 51.8412 98.1461 50.7578 98.1322C49.6744 98.1184 48.7037 97.8754 47.8457 97.4027ZM52.1983 95.3665C52.621 95.1265 52.9573 94.7846 53.207 94.3408C53.4565 93.8972 53.5851 93.3858 53.5924 92.8063C53.5997 92.2271 53.484 91.7126 53.2457 91.2626C53.0072 90.8128 52.6797 90.4625 52.2632 90.2115C51.8465 89.9608 51.3795 89.8319 50.8623 89.8252C50.3448 89.8186 49.8748 89.9356 49.4521 90.1756C49.0292 90.4159 48.6929 90.7576 48.4434 91.2013C48.1937 91.645 48.0653 92.1565 48.058 92.7358C48.0507 93.3152 48.1662 93.8298 48.4047 94.2795C48.643 94.7295 48.9705 95.0799 49.3872 95.3306C49.8037 95.5815 50.2706 95.71 50.7881 95.7166C51.3054 95.7233 51.7755 95.6067 52.1983 95.3665Z" fill="#135C70"/>
<path d="M66.753 95.3897L65.1718 95.3696L65.1374 98.1091L62.2385 98.0722L62.3683 87.7622L67.0534 87.8218C67.9806 87.8337 68.7838 87.9986 69.4632 88.3165C70.1425 88.6346 70.664 89.0831 71.0278 89.6623C71.3914 90.2413 71.5684 90.9191 71.5587 91.6945C71.5492 92.4409 71.3676 93.0892 71.0144 93.6395C70.6608 94.19 70.1601 94.6181 69.5119 94.9241L71.6819 98.1925L68.5781 98.1529L66.753 95.3897ZM68.1906 90.5322C67.8913 90.2633 67.4439 90.1249 66.8486 90.1173L65.2382 90.0968L65.2001 93.1161L66.8106 93.1367C67.4058 93.1442 67.8565 93.0199 68.1625 92.7636C68.4681 92.5073 68.6242 92.1385 68.6303 91.6573C68.6364 91.1764 68.4897 90.801 68.1906 90.5322Z" fill="#135C70"/>
<path d="M81.329 96.0615L81.3006 98.3149L73.0725 98.2101L73.2023 87.9002L81.2401 88.0025L81.2117 90.2559L76.0435 90.1901L76.0217 91.9282L80.575 91.9862L80.5476 94.166L75.9943 94.1079L75.9705 95.9932L81.329 96.0615Z" fill="#135C70"/>
<path d="M89.8028 96.4198L85.4691 96.3647L84.6387 98.3574L81.6813 98.3198L86.335 88.0673L89.1899 88.1037L93.5987 98.4715L90.5828 98.4331L89.8028 96.4198ZM88.9807 94.2586L87.7046 90.9426L86.3454 94.2251L88.9807 94.2586Z" fill="#135C70"/>
<path d="M96.4965 98.0297C95.648 97.5623 94.9851 96.918 94.5074 96.0967C94.0294 95.2757 93.7972 94.3495 93.8102 93.3185C93.8232 92.2875 94.0786 91.3677 94.5771 90.5588C95.0753 89.7501 95.7543 89.1228 96.6143 88.6771C97.474 88.2315 98.4406 88.0154 99.5144 88.0291C100.451 88.041 101.293 88.2188 102.041 88.5622C102.788 88.9056 103.407 89.3948 103.897 90.0294L102.031 91.685C101.377 90.8715 100.577 90.4584 99.6304 90.4464C99.0741 90.4394 98.577 90.5559 98.1397 90.7957C97.7022 91.0358 97.3611 91.3776 97.1165 91.8213C96.8716 92.2651 96.7457 92.7766 96.7384 93.3558C96.7311 93.9353 96.8441 94.4498 97.0777 94.8996C97.3112 95.3495 97.6435 95.6999 98.0749 95.9508C98.506 96.2019 99 96.3308 99.5563 96.3379C100.503 96.35 101.313 95.9577 101.987 95.161L103.811 96.8635C103.305 97.4857 102.674 97.9589 101.919 98.2831C101.163 98.6072 100.317 98.7634 99.3795 98.7515C98.3056 98.7378 97.3447 98.4973 96.4965 98.0297Z" fill="#135C70"/>
<path d="M114.958 88.432L114.828 98.742L111.929 98.705L111.98 94.6841L108.027 94.6338L107.976 98.6547L105.077 98.6177L105.207 88.3078L108.106 88.3447L108.057 92.2183L112.01 92.2687L112.059 88.3951L114.958 88.432Z" fill="#135C70"/>
<path d="M123.42 90.8524L120.272 90.8124L120.301 88.5L129.481 88.6169L129.452 90.9292L126.319 90.8894L126.218 98.887L123.319 98.85L123.42 90.8524Z" fill="#135C70"/>
<path d="M140.315 88.7549L140.185 99.0649L137.287 99.028L137.337 95.0071L133.384 94.9567L133.333 98.9776L130.435 98.9407L130.564 88.6307L133.463 88.6677L133.414 92.5413L137.368 92.5916L137.416 88.7181L140.315 88.7549Z" fill="#135C70"/>
<path d="M150.492 96.9422L150.463 99.1957L142.235 99.091L142.365 88.781L150.403 88.8833L150.374 91.1368L145.206 91.071L145.184 92.8089L149.737 92.8669L149.71 95.0467L145.157 94.9888L145.133 96.8741L150.492 96.9422Z" fill="#135C70"/>
<path d="M166.214 89.0847L166.085 99.3946L163.698 99.3642L159.243 93.8129L159.174 99.3066L156.334 99.2704L156.464 88.9605L158.85 88.9909L163.305 94.5423L163.374 89.0485L166.214 89.0847Z" fill="black"/>
<path d="M176.391 97.2722L176.362 99.5256L168.134 99.4208L168.264 89.1108L176.302 89.2132L176.273 91.4666L171.105 91.4008L171.083 93.1388L175.637 93.1968L175.609 95.3766L171.056 95.3186L171.032 97.2039L176.391 97.2722Z" fill="black"/>
<path d="M184.356 99.6274L182.274 96.4043L180.14 99.5737L176.831 99.5315L180.63 94.3652L177.122 89.2236L180.387 89.2652L182.399 92.2664L184.457 89.3171L187.59 89.357L183.955 94.2898L187.695 99.67L184.356 99.6274Z" fill="black"/>
<path d="M190.518 91.7069L187.371 91.6669L187.4 89.3545L196.579 89.4714L196.55 91.7837L193.417 91.7438L193.317 99.7414L190.418 99.7045L190.518 91.7069Z" fill="black"/>
<path d="M201.923 89.5395L204.822 89.5764L204.721 97.574L209.611 97.6363L209.582 99.9486L201.793 99.8494L201.923 89.5395Z" fill="black"/>
<path d="M218.98 97.8145L218.952 100.068L210.724 99.9632L210.854 89.6532L218.892 89.7556L218.863 92.0091L213.695 91.9432L213.673 93.6812L218.226 93.7392L218.199 95.919L213.646 95.861L213.622 97.7463L218.98 97.8145Z" fill="black"/>
<path d="M230.941 89.9089L226.419 100.163L223.564 100.127L219.316 89.761L222.449 89.8008L225.146 96.5525L228.071 89.8724L230.941 89.9089Z" fill="black"/>
<path d="M239.668 98.0779L239.639 100.331L231.411 100.227L231.541 89.9166L239.579 90.019L239.55 92.2724L234.382 92.2066L234.36 93.9445L238.914 94.0025L238.886 96.1824L234.333 96.1244L234.309 98.0097L239.668 98.0779Z" fill="black"/>
<path d="M241.38 90.042L244.278 90.0788L244.178 98.0765L249.068 98.1388L249.039 100.451L241.25 100.352L241.38 90.042Z" fill="black"/>
</svg>
